<svg xmlns="http://www.w3.org/2000/svg" width="1024" height="1024" viewBox="0 0 1024 1024">
<g>
<path d="M 835.51 556.82 C829.34,576.13 825.00,590.09 825.00,590.84 C825.00,591.48 824.55,592.00 824.00,592.00 C823.45,592.00 823.00,590.71 823.00,589.13 C823.00,587.07 819.70,575.91 811.68,551.19 C813.33,556.24 814.73,560.57 815.77,563.82 C820.07,577.19 823.98,588.22 824.48,588.32 C824.88,588.40 829.51,575.12 835.51,556.82 ZM 871.44 447.00 L 859.27 483.75 C857.45,489.25 855.56,494.98 853.65,500.79 C857.48,489.06 860.87,478.71 863.02,472.25 L 871.42 447.00 L 871.44 447.00 ZM 795.71 502.67 C794.72,499.70 793.71,496.65 792.66,493.50 L 777.35 447.50 L 792.66 493.50 C793.65,496.48 794.67,499.55 795.71,502.67 Z" fill="rgba(140,140,140,1)"/>
<path d="M 753.80 675.14 L 753.50 661.00 L 760.00 660.98 C767.22,660.97 777.45,658.85 782.21,656.39 C790.52,652.09 798.74,641.29 802.01,630.37 C803.41,625.68 804.99,630.35 776.23,554.00 C768.25,532.83 760.49,512.12 758.98,508.00 C756.41,500.99 738.05,452.63 736.48,448.73 C735.81,447.06 737.01,446.97 756.56,447.23 L 777.35 447.50 L 792.66 493.50 C814.74,559.85 823.00,585.88 823.00,589.13 C823.00,590.71 823.45,592.00 824.00,592.00 C824.55,592.00 825.00,591.48 825.00,590.84 C825.00,589.27 844.28,529.01 859.27,483.75 L 871.44 447.00 L 891.22 447.00 C902.66,447.00 911.00,447.39 911.00,447.92 C911.00,448.84 905.65,463.56 889.52,507.00 C884.92,519.38 878.92,535.58 876.17,543.00 C873.43,550.42 867.58,566.17 863.18,578.00 C858.78,589.83 852.62,606.47 849.49,615.00 C837.63,647.34 831.30,659.51 820.94,669.95 C813.70,677.23 804.76,682.47 793.50,686.00 C787.97,687.73 783.09,688.31 770.30,688.74 L 754.11 689.28 L 753.80 675.14 ZM 622.50 625.44 C621.40,625.19 618.03,624.50 615.00,623.90 C599.78,620.93 584.30,609.33 577.55,595.83 C573.04,586.82 571.65,579.57 572.24,568.25 C572.64,560.51 573.23,557.98 575.85,552.66 C579.92,544.39 585.38,538.29 593.40,533.07 C606.73,524.38 619.21,521.79 659.00,519.45 C673.58,518.59 686.12,517.68 686.88,517.43 C687.97,517.06 688.16,514.65 687.82,505.63 C687.44,495.83 687.01,493.55 684.64,488.70 C679.52,478.23 669.66,473.55 653.00,473.68 C634.07,473.83 622.31,480.41 616.21,494.25 L 614.11 499.00 L 594.56 499.00 C578.48,499.00 575.00,498.75 575.00,497.60 C575.00,496.84 576.31,492.98 577.92,489.04 C586.81,467.19 602.17,453.12 624.50,446.39 C632.90,443.85 634.79,443.66 653.00,443.58 C673.75,443.49 678.44,444.16 689.45,448.72 C707.16,456.07 718.85,468.80 723.68,486.00 C725.36,491.99 725.50,497.60 725.50,557.00 L 725.50 621.50 L 707.25 621.77 L 689.00 622.05 L 689.00 610.02 C689.00,603.41 688.83,598.00 688.62,598.00 C688.41,598.00 684.70,601.51 680.37,605.79 C667.47,618.56 653.15,624.71 634.50,625.49 C629.00,625.72 623.60,625.70 622.50,625.44 ZM 658.21 593.99 C666.18,591.54 671.69,588.08 677.61,581.82 C684.38,574.66 687.02,567.58 687.75,554.59 L 688.31 544.67 L 665.66 545.35 C652.84,545.74 639.65,546.67 635.27,547.51 C614.66,551.46 606.59,562.15 611.57,578.91 C614.38,588.40 620.98,593.22 635.50,596.39 C639.13,597.19 652.40,595.78 658.21,593.99 ZM 141.29 620.61 C127.63,616.15 114.86,603.22 101.18,580.00 C89.66,560.43 80.59,534.87 77.41,513.00 C71.88,474.87 84.46,441.49 111.28,423.13 C122.02,415.78 133.47,412.02 145.00,412.04 C154.46,412.05 158.45,412.99 172.42,418.45 C189.16,424.99 188.49,424.98 205.66,419.17 C225.32,412.52 229.75,411.58 241.00,411.66 C256.13,411.77 268.17,415.58 281.00,424.34 C286.89,428.35 296.00,436.96 296.00,438.51 C296.00,439.17 293.11,441.59 289.58,443.87 C273.47,454.29 264.99,470.56 265.01,491.00 C265.02,496.22 265.68,502.98 266.49,506.00 C270.30,520.35 281.00,534.99 293.65,543.17 C300.04,547.30 300.14,547.44 299.51,550.94 C298.47,556.64 287.80,577.69 280.13,589.16 C260.69,618.23 245.23,626.62 225.99,618.55 C212.76,613.00 205.39,610.87 197.41,610.30 C187.56,609.60 182.17,610.75 167.75,616.64 C155.59,621.61 147.89,622.77 141.29,620.61 ZM 383.00 503.47 L 383.00 384.89 L 439.75 385.26 C501.81,385.67 500.82,385.58 516.00,392.04 C536.62,400.82 552.87,419.82 558.71,442.00 C561.35,452.03 561.12,475.96 558.27,486.50 C554.01,502.29 547.86,512.95 536.84,523.66 C529.08,531.20 522.98,535.09 512.74,539.04 C500.10,543.91 489.57,544.99 454.26,544.99 L 423.02 545.00 L 422.76 583.25 L 422.50 621.50 L 402.75 621.77 L 383.00 622.04 L 383.00 503.47 ZM 486.91 509.46 C504.46,505.32 518.11,491.65 522.08,474.21 C523.51,467.97 523.43,456.64 521.93,450.47 C518.05,434.51 506.60,422.88 490.43,418.44 C485.81,417.17 477.72,416.70 453.75,416.27 L 423.00 415.73 L 423.00 463.36 L 423.00 511.00 L 451.75 510.99 C473.86,510.97 481.98,510.62 486.91,509.46 ZM 187.00 404.39 C187.00,385.28 201.44,361.77 218.73,352.73 C226.95,348.44 234.89,346.00 240.68,346.00 L 245.00 346.00 L 245.00 351.79 C245.00,359.41 242.75,367.80 238.25,376.93 C233.59,386.38 221.30,399.15 212.41,403.78 C206.04,407.09 195.80,409.96 190.25,409.99 L 187.00 410.00 L 187.00 404.39 Z" fill="rgba(241,241,241,1)"/>
</g>
</svg>