<svg xmlns="http://www.w3.org/2000/svg" width="1024" height="1024" viewBox="0 0 1024 1024">
<g>
<path d="M 208.15 630.93 C197.10,626.51 191.78,613.59 196.43,602.50 C203.76,585.02 228.19,584.40 236.10,601.50 C240.95,611.97 236.00,625.37 225.54,630.12 C221.18,632.10 212.12,632.52 208.15,630.93 ZM 138.12 611.83 C131.82,608.71 128.00,602.36 128.00,595.00 C128.00,588.36 129.63,585.35 143.96,565.50 C149.12,558.35 154.92,550.25 156.85,547.50 C163.61,537.85 166.86,535.34 174.32,533.95 C189.35,531.16 201.07,545.86 195.67,560.74 C194.57,563.78 173.33,594.35 164.96,604.93 C158.05,613.67 147.38,616.41 138.12,611.83 ZM 393.13 590.46 C372.29,585.94 358.37,571.89 354.45,551.42 C352.47,541.03 352.31,402.93 354.28,399.03 C354.97,397.67 357.05,395.53 358.91,394.28 C365.08,390.13 377.84,391.77 381.38,397.17 C382.65,399.11 382.94,404.26 383.11,427.25 C383.22,442.51 383.46,455.00 383.64,455.00 C383.83,455.00 387.47,454.02 391.74,452.82 C403.42,449.53 422.56,449.72 433.24,453.24 C450.81,459.01 462.00,470.65 466.43,487.72 C467.66,492.49 468.00,499.32 467.98,519.64 C467.96,548.75 467.08,555.31 461.89,565.05 C458.02,572.32 448.23,581.76 440.84,585.37 C428.01,591.62 408.22,593.73 393.13,590.46 ZM 420.64 562.40 C426.90,560.27 430.71,557.35 433.50,552.50 C436.49,547.32 436.81,545.33 437.52,528.00 C438.23,510.66 436.94,496.77 434.11,491.23 C431.80,486.68 427.09,482.38 422.00,480.18 C416.18,477.65 401.06,478.02 391.70,480.91 L 383.90 483.32 L 384.20 514.91 C384.49,545.75 384.56,546.61 386.85,551.28 C389.44,556.54 393.99,560.52 399.75,562.57 C404.90,564.41 414.96,564.33 420.64,562.40 ZM 731.91 590.00 C715.77,587.43 702.11,578.18 695.13,565.10 C689.44,554.42 689.04,550.24 689.02,501.97 C689.00,453.71 688.79,455.24 695.60,452.39 C699.89,450.60 707.13,450.61 711.47,452.42 C717.91,455.12 718.00,455.69 718.02,497.20 C718.03,517.72 718.46,537.38 718.96,540.89 C720.17,549.22 724.06,555.53 730.45,559.47 C734.96,562.26 736.06,562.50 744.42,562.50 C754.42,562.50 758.96,560.86 764.20,555.34 C770.44,548.76 770.45,548.66 771.00,500.90 C771.42,464.13 771.74,457.02 773.00,455.50 C776.58,451.18 786.82,449.65 793.47,452.42 C800.17,455.22 800.13,454.88 799.80,505.29 C799.50,549.82 799.46,550.60 797.16,557.00 C791.60,572.41 778.65,584.25 762.50,588.68 C756.13,590.43 739.17,591.16 731.91,590.00 ZM 509.20 588.38 C502.80,585.12 503.00,587.27 503.01,520.30 C503.03,473.71 503.32,458.92 504.28,457.00 C506.99,451.57 518.72,449.18 526.57,452.46 C533.11,455.20 533.00,454.06 532.99,520.72 C532.97,584.91 533.09,583.38 527.74,587.36 C523.97,590.16 513.78,590.72 509.20,588.38 ZM 836.33 588.54 C829.71,585.66 829.87,586.94 829.93,537.32 C829.99,489.52 830.21,486.92 835.15,476.41 C838.78,468.69 847.13,460.56 856.00,456.12 C865.73,451.25 875.11,449.54 888.00,450.29 C899.82,450.97 908.12,453.54 916.06,458.96 L 922.22 463.16 L 924.86 460.69 C927.98,457.77 933.41,454.99 941.00,452.41 C945.25,450.96 949.35,450.54 959.00,450.57 C978.52,450.63 989.69,454.52 1000.02,464.87 C1006.74,471.60 1011.54,480.91 1012.96,490.00 C1013.54,493.66 1013.99,515.00 1013.99,538.80 C1014.00,586.32 1014.11,585.54 1007.02,588.38 C999.11,591.54 989.85,589.75 986.33,584.38 C984.65,581.82 984.46,578.04 984.00,538.05 C983.52,495.87 983.43,494.37 981.35,490.50 C976.81,482.08 970.53,478.55 960.00,478.52 C953.83,478.50 951.71,478.94 948.04,481.00 C943.12,483.76 939.56,488.34 938.02,493.88 C937.42,496.04 937.01,514.55 937.01,539.82 C937.00,568.21 936.64,582.80 935.92,584.15 C934.41,586.98 927.34,589.95 922.07,589.98 C916.53,590.01 909.68,586.78 908.15,583.44 C907.34,581.66 906.99,568.78 906.98,540.20 C906.96,517.82 906.54,497.73 906.04,495.57 C904.79,490.16 900.19,483.95 895.46,481.29 C886.74,476.38 874.83,477.45 867.83,483.77 C860.23,490.64 860.56,488.33 860.00,538.15 C859.52,581.00 859.42,582.88 857.50,585.00 C856.40,586.21 854.29,587.83 852.80,588.60 C849.37,590.38 840.47,590.34 836.33,588.54 ZM 561.40 585.60 C558.41,582.61 558.00,581.58 558.00,577.03 C558.00,574.19 558.50,570.93 559.11,569.79 C559.72,568.65 567.29,557.99 575.93,546.11 C600.70,512.02 624.00,479.31 624.00,478.63 C624.00,478.28 611.66,478.00 596.58,478.00 L 569.15 478.00 L 566.09 475.43 C559.97,470.27 559.71,460.44 565.56,454.94 L 568.16 452.50 L 610.83 452.19 C656.47,451.87 659.37,452.11 662.95,456.66 C665.69,460.15 665.75,468.65 663.06,473.79 C661.99,475.83 647.22,496.62 630.24,520.00 L 599.36 562.50 L 626.93 563.00 C646.69,563.36 655.13,563.86 656.74,564.78 C659.83,566.54 662.00,571.13 662.00,575.89 C662.00,581.57 660.53,584.71 656.77,587.00 C653.63,588.91 651.71,588.99 609.15,589.00 L 564.80 589.00 L 561.40 585.60 ZM 70.31 585.47 C58.93,579.80 55.14,565.43 61.66,552.65 C64.17,547.72 70.92,538.23 112.64,481.00 C134.09,451.58 156.04,421.42 161.43,414.00 C176.92,392.64 181.26,389.04 191.50,389.04 C200.65,389.04 209.23,395.11 212.02,403.56 C213.77,408.87 212.71,418.03 209.73,423.37 C207.57,427.23 178.00,468.89 163.51,488.50 C160.66,492.35 148.96,508.55 137.49,524.50 C98.34,578.98 95.54,582.55 89.76,585.43 C83.01,588.80 77.01,588.81 70.31,585.47 ZM 84.54 448.49 C76.49,446.40 70.03,437.85 70.01,429.26 C70.00,425.84 73.31,417.87 77.02,412.41 C84.74,401.02 103.57,375.25 106.36,372.26 C110.46,367.86 116.66,365.62 123.05,366.23 C135.84,367.46 144.08,380.64 139.85,393.10 C138.68,396.53 134.44,402.76 117.13,426.50 C105.63,442.27 103.49,444.68 99.00,446.95 C93.85,449.54 90.10,449.94 84.54,448.49 ZM 509.20 427.93 C494.89,420.66 494.88,400.72 509.18,393.60 C515.64,390.38 521.14,390.27 527.02,393.25 C533.64,396.60 537.42,402.58 537.47,409.79 C537.51,417.01 534.79,422.46 529.17,426.44 C523.49,430.44 515.35,431.05 509.20,427.93 ZM 47.00 388.41 C38.17,384.60 32.00,373.98 33.58,365.30 C36.39,349.80 51.24,341.83 64.75,348.56 C75.51,353.92 79.93,367.33 74.47,378.02 C69.55,387.66 56.61,392.56 47.00,388.41 Z" fill="rgba(246,252,248,1)"/>
</g>
</svg>