<svg xmlns="http://www.w3.org/2000/svg" width="1024" height="1024" viewBox="0 0 1024 1024">
<g>
<path d="M 500.93 876.11 C490.63,872.81 484.62,868.46 458.65,845.51 C449.94,837.80 440.04,829.09 436.65,826.15 C433.27,823.21 428.22,818.71 425.44,816.15 C417.45,808.81 407.18,799.85 404.17,797.58 C402.65,796.44 400.50,794.60 399.39,793.50 C395.72,789.88 381.61,777.34 375.50,772.27 C369.91,767.63 359.67,758.20 338.94,738.59 C334.24,734.14 326.39,726.90 321.50,722.50 C303.21,706.04 247.81,651.55 233.50,635.95 C230.76,632.95 222.50,623.97 215.16,616.00 C207.83,608.03 199.30,598.35 196.22,594.50 C193.13,590.65 190.14,587.05 189.56,586.50 C188.98,585.95 187.16,583.70 185.53,581.50 C183.90,579.30 181.75,576.62 180.76,575.54 C176.71,571.13 161.06,549.27 154.77,539.23 C122.71,488.08 108.83,454.18 101.83,410.00 C98.86,391.24 98.56,353.31 101.26,338.00 C107.99,299.76 123.26,265.58 146.38,237.00 C154.25,227.26 171.00,210.50 178.00,205.35 C181.03,203.13 184.10,200.59 184.82,199.71 C189.50,194.08 221.71,176.09 238.70,169.62 C286.16,151.55 344.09,150.06 392.35,165.66 C414.43,172.79 438.56,185.24 457.70,199.36 C475.40,212.43 500.13,238.12 510.07,253.78 L 512.79 258.06 L 521.60 246.28 C533.46,230.43 555.42,208.55 569.93,198.12 C599.81,176.66 633.14,162.92 668.50,157.49 C683.02,155.26 712.04,154.49 727.00,155.94 C769.15,160.01 808.51,175.17 840.98,199.82 C851.06,207.48 868.64,224.50 877.84,235.50 C903.72,266.47 920.82,307.84 924.92,349.42 C931.95,420.60 908.44,490.55 851.99,566.47 C813.84,617.78 746.35,686.59 645.93,776.58 C631.86,789.19 607.56,810.77 591.93,824.55 C536.20,873.65 536.59,873.34 526.07,876.41 C518.99,878.48 507.92,878.35 500.93,876.11 ZM 563.49 793.36 C589.35,770.73 612.53,750.35 615.00,748.07 C617.47,745.79 627.13,737.08 636.47,728.71 C807.05,575.77 868.11,495.57 882.98,404.93 C886.08,386.02 885.88,360.92 882.48,342.47 C875.35,303.80 857.50,271.10 828.97,244.46 C815.32,231.72 803.23,223.57 784.50,214.49 C763.27,204.19 743.36,198.87 719.00,196.99 C682.29,194.16 646.56,201.62 615.50,218.61 C586.14,234.67 565.85,254.68 538.06,295.00 C521.50,319.02 515.75,323.20 506.83,317.74 C502.44,315.06 502.42,315.04 487.51,293.50 C481.03,284.15 472.35,272.23 468.21,267.00 C444.53,237.12 413.72,215.75 378.34,204.65 C350.01,195.76 312.88,193.94 283.79,200.00 C249.83,207.08 217.32,224.75 193.35,249.18 C181.77,260.96 179.78,263.35 171.69,275.08 C136.53,326.06 131.86,393.89 158.98,459.85 C178.94,508.42 210.60,552.39 272.22,617.12 C303.50,649.99 370.02,711.84 441.99,775.00 C512.60,836.95 512.96,837.26 514.90,835.74 C515.77,835.06 537.64,815.99 563.49,793.36 Z" fill="rgba(252,252,252,1)"/>
</g>
</svg>