<svg xmlns="http://www.w3.org/2000/svg" width="1024" height="1024" viewBox="0 0 1024 1024">
<g>
<path d="M 504.00 599.41 C499.67,597.54 352.72,451.03 350.51,446.38 C346.84,438.65 350.31,428.35 357.96,424.30 C363.18,421.54 370.64,421.26 375.30,423.63 C377.06,424.53 408.54,455.22 445.25,491.83 L 511.99 558.40 L 533.25 537.45 C544.94,525.93 575.32,495.80 600.77,470.50 C626.22,445.20 648.27,423.96 649.77,423.30 C656.51,420.32 666.69,422.95 670.81,428.74 C671.90,430.27 673.28,433.33 673.88,435.54 C676.29,444.51 679.58,440.74 598.17,522.32 C556.49,564.09 521.86,597.99 519.79,599.07 C515.38,601.36 508.85,601.50 504.00,599.41 Z" fill="rgba(244,244,244,1)"/>
</g>
</svg>