<svg xmlns="http://www.w3.org/2000/svg" width="1024" height="1024" viewBox="0 0 1024 1024">
<g>
<path d="M 482.00 857.38 C401.83,850.36 334.06,820.00 272.69,763.60 C249.36,742.16 221.94,707.05 206.23,678.50 C185.42,640.68 171.48,596.38 165.79,550.00 C163.79,533.69 164.13,482.69 166.35,467.00 C173.94,413.34 190.40,367.66 217.45,325.19 C251.94,271.05 301.57,226.50 357.50,199.50 C391.74,182.96 424.34,173.39 467.00,167.36 C486.79,164.55 537.77,164.80 560.50,167.80 C608.74,174.18 650.90,189.04 694.33,214.96 C724.09,232.71 752.46,256.55 776.61,284.07 C811.12,323.40 837.81,374.63 850.81,426.50 C862.68,473.81 864.14,526.60 854.92,574.79 C837.57,665.45 788.09,741.56 710.50,796.90 C672.53,823.99 628.53,842.69 581.00,851.93 C558.67,856.27 548.32,857.17 517.00,857.47 C500.23,857.64 484.48,857.59 482.00,857.38 ZM 552.00 817.56 C590.98,812.05 621.78,802.42 655.32,785.27 C684.48,770.36 708.25,752.89 732.50,728.55 C758.15,702.83 775.38,679.05 790.54,648.50 C811.39,606.47 821.46,566.24 822.70,520.00 C823.74,481.15 819.44,451.57 807.48,415.41 C784.76,346.71 741.15,290.73 679.26,250.83 C664.66,241.43 635.53,227.22 618.50,221.21 C581.48,208.15 542.66,202.13 502.69,203.27 C470.05,204.21 443.74,208.80 413.00,218.95 C365.45,234.64 328.45,257.58 291.97,294.00 C253.58,332.33 227.53,376.99 212.40,430.41 C200.38,472.86 198.53,527.32 207.60,571.79 C214.76,606.86 229.32,643.81 247.50,673.00 C260.92,694.55 282.99,721.04 302.33,738.81 C330.66,764.83 364.26,785.47 401.45,799.67 C422.40,807.68 454.05,815.43 476.00,817.93 C481.23,818.52 487.08,819.19 489.00,819.41 C497.45,820.38 541.11,819.10 552.00,817.56 ZM 454.48 729.63 C434.97,721.63 417.92,710.52 402.23,695.57 C363.74,658.87 352.62,611.29 370.16,558.31 C376.03,540.58 391.28,511.71 407.30,488.00 C419.04,470.62 427.49,460.14 459.72,423.00 C468.16,413.27 484.65,391.20 489.35,383.33 C509.40,349.82 515.18,318.76 507.54,285.57 C506.16,279.56 505.19,274.48 505.39,274.27 C506.12,273.55 524.62,292.74 531.00,300.84 C551.93,327.41 568.06,361.51 574.13,392.00 C576.05,401.62 576.43,406.78 576.46,423.50 C576.50,446.96 575.44,453.61 567.97,476.50 C556.70,511.02 554.73,532.50 561.21,549.84 C563.53,556.04 570.26,564.00 573.19,564.00 C578.55,564.00 583.22,557.18 585.62,545.86 C586.97,539.49 587.02,536.65 585.95,524.73 C583.88,501.59 586.23,487.28 595.03,469.50 C599.50,460.46 611.88,443.00 613.82,443.00 C614.24,443.00 614.41,445.87 614.19,449.39 C613.61,458.47 615.63,472.03 619.12,482.50 C620.77,487.45 626.00,498.92 630.74,508.00 C661.81,567.50 666.49,579.93 667.67,606.00 C668.28,619.68 666.71,631.96 662.90,643.31 C651.86,676.15 624.58,706.17 590.05,723.47 C582.11,727.44 568.07,733.00 565.97,733.00 C565.46,733.00 567.59,729.29 570.69,724.75 C587.46,700.21 590.45,677.80 579.81,656.58 C575.40,647.80 571.39,642.65 555.71,625.65 C548.02,617.32 539.73,607.80 537.30,604.50 C527.42,591.11 519.72,573.46 516.49,556.81 C514.26,545.36 513.47,520.00 514.93,506.64 C515.58,500.66 515.90,495.57 515.65,495.31 C514.71,494.38 490.00,519.81 481.94,530.00 C459.15,558.82 443.63,590.37 438.42,618.50 C435.85,632.35 435.41,657.30 437.49,670.57 C440.48,689.65 449.54,712.89 458.91,725.50 C465.55,734.43 465.75,734.24 454.48,729.63 Z" fill="rgba(235,235,237,1)"/>
</g>
</svg>