<svg xmlns="http://www.w3.org/2000/svg" width="1024" height="1024" viewBox="0 0 1024 1024">
<g>
<path d="M 398.00 899.32 C341.88,897.55 304.32,892.20 272.00,881.37 C230.17,867.35 195.87,843.28 170.93,810.46 C140.52,770.43 127.25,726.79 122.81,652.22 C121.14,624.29 121.13,408.10 122.79,375.00 C126.12,308.50 132.84,275.23 149.98,240.48 C161.31,217.51 174.27,199.70 192.29,182.34 C225.45,150.40 262.49,133.03 317.50,123.62 C358.09,116.67 385.67,115.72 531.50,116.26 C653.84,116.71 666.58,117.12 696.00,121.57 C784.13,134.90 841.88,173.50 875.03,241.24 C888.95,269.67 896.67,301.65 899.95,344.50 C902.02,371.41 903.22,444.94 902.60,506.00 C902.26,539.28 901.92,583.15 901.84,603.50 C901.69,645.32 900.81,667.18 898.48,687.48 C892.28,741.46 879.05,777.65 853.13,811.50 C826.06,846.84 789.51,871.52 745.16,884.41 C712.06,894.03 683.70,897.52 626.50,899.00 C595.08,899.81 421.30,900.06 398.00,899.32 ZM 643.50 830.48 C658.90,829.65 676.90,828.28 683.50,827.44 C743.29,819.81 779.70,800.09 805.23,761.50 C821.71,736.58 830.58,706.77 835.11,661.00 C835.85,653.44 836.40,608.18 836.71,529.00 C837.34,366.57 836.26,342.85 826.48,305.34 C814.34,258.76 789.11,226.65 748.74,206.37 C726.32,195.11 697.81,188.75 656.50,185.81 C630.33,183.94 374.76,183.95 357.00,185.82 C300.32,191.78 266.29,205.63 237.46,234.46 C205.59,266.33 192.18,304.21 188.94,371.50 C188.21,386.78 187.98,438.14 188.25,524.50 C188.69,665.97 188.63,664.23 194.60,695.95 C207.32,763.48 245.64,805.60 308.75,821.41 C329.90,826.71 352.40,829.46 386.50,830.92 C396.40,831.35 451.98,831.76 510.00,831.84 C592.55,831.95 621.59,831.66 643.50,830.48 ZM 488.00 718.36 C480.36,717.44 462.04,713.74 453.97,711.48 C395.53,695.13 343.09,649.46 318.69,593.66 C306.12,564.92 300.60,538.44 300.63,507.00 C300.67,442.47 327.06,385.74 376.24,344.42 C413.51,313.10 459.10,297.00 510.50,297.01 C544.73,297.02 569.48,301.65 597.00,313.20 C660.37,339.80 707.87,397.83 721.46,465.28 C732.15,518.28 720.97,576.55 691.35,622.34 C660.07,670.69 612.37,703.27 554.79,715.60 C543.63,717.99 540.15,718.26 517.00,718.51 C502.98,718.66 489.92,718.60 488.00,718.36 ZM 541.12 649.60 C561.75,645.42 582.33,636.41 598.88,624.32 C609.92,616.25 625.80,599.64 633.42,588.20 C644.15,572.08 652.24,552.28 655.76,533.50 C658.35,519.66 658.09,492.55 655.22,479.40 C650.92,459.65 644.39,443.55 634.73,428.91 C612.93,395.85 582.42,375.66 541.00,366.89 C526.87,363.89 498.10,363.62 484.54,366.34 C464.85,370.30 445.15,378.65 428.18,390.22 C417.92,397.21 398.73,416.54 392.15,426.50 C374.00,453.98 365.82,484.82 368.13,517.13 C370.75,553.84 384.24,583.26 410.49,609.52 C431.57,630.61 451.57,642.05 478.96,648.69 C499.50,653.68 519.54,653.97 541.12,649.60 ZM 712.57 333.98 C700.98,331.94 687.52,321.84 682.37,311.32 C677.05,300.45 676.89,284.55 682.00,273.72 C684.87,267.62 691.66,260.06 697.75,256.18 C713.41,246.20 736.92,248.85 750.17,262.08 C768.09,279.98 765.26,312.72 744.55,326.97 C735.48,333.20 723.30,335.88 712.57,333.98 Z" fill="rgba(248,251,249,1)"/>
</g>
</svg>