<svg xmlns="http://www.w3.org/2000/svg" width="150" height="150" viewBox="0 0 150 150">
<g>
<path d="M 25.76 129.00 C16.10,126.09 12.54,120.44 13.21,109.10 C14.07,94.78 18.68,89.69 40.32,79.15 C61.14,69.02 64.63,68.00 78.22,68.01 C92.34,68.03 95.76,68.95 115.40,78.10 C137.47,88.37 142.89,94.03 143.81,107.79 C144.55,118.75 139.92,126.54 131.22,128.96 C126.75,130.20 29.88,130.24 25.76,129.00 ZM 132.67 121.48 C138.87,117.42 139.67,106.90 134.42,98.29 C131.76,93.92 130.40,92.96 119.00,87.30 C98.89,77.33 91.77,74.81 81.96,74.24 C77.20,73.97 71.03,74.26 68.04,74.90 C60.57,76.50 30.29,90.77 25.83,94.78 C21.66,98.54 19.00,105.14 19.00,111.74 C19.00,118.83 21.54,121.71 28.88,122.94 C30.74,123.25 54.34,123.38 81.32,123.24 C122.94,123.02 130.73,122.75 132.67,121.48 ZM 72.50 54.12 C60.57,50.99 53.35,40.56 54.17,27.65 C54.96,15.31 63.55,6.39 75.73,5.29 C91.82,3.83 103.15,13.81 103.31,29.60 C103.41,39.41 99.40,46.92 91.63,51.48 C86.95,54.22 77.72,55.50 72.50,54.12 ZM 86.50 46.76 C89.54,45.23 94.01,40.82 95.59,37.80 C99.30,30.70 96.05,18.97 89.09,14.28 C85.03,11.55 74.65,11.09 70.10,13.45 C62.31,17.48 58.43,26.80 60.98,35.35 C62.44,40.24 68.59,46.52 73.27,47.91 C76.76,48.94 83.29,48.38 86.50,46.76 Z" fill="rgba(220,221,221,1)"/>
</g>
</svg>