<?xml version="1.0" encoding="UTF-8" standalone="no"?>
<!DOCTYPE svg PUBLIC "-//W3C//DTD SVG 1.1//EN" "http://www.w3.org/Graphics/SVG/1.1/DTD/svg11.dtd">
<svg width="100%" height="100%" viewBox="0 0 1037 286" version="1.1" xmlns="http://www.w3.org/2000/svg" xmlns:xlink="http://www.w3.org/1999/xlink" xml:space="preserve" xmlns:serif="http://www.serif.com/" style="fill-rule:evenodd;clip-rule:evenodd;stroke-linecap:round;stroke-linejoin:round;stroke-miterlimit:1.5;">
    <g id="Capa1">
    </g>
    <g transform="matrix(1,0,0,1,7.628949,-375.656435)">
        <path d="M477.57,523.684L357.399,524.406C352.279,524.488 349.369,522.212 349.15,517.067L349.15,449.5C349.175,445.55 351.577,443.139 357.156,442.784L482.322,442.784L482.573,455.305L482.483,458.13L482.543,461L482.513,461.574L481.732,463.528L476.204,463.407L420.112,463.36L379.843,463.799C375.102,463.369 371.757,464.889 372.452,469.687L372.567,480.739L372.916,491.423L372.987,495.984C373.028,500.428 375.352,501.702 380.412,501.547L387.365,501.651L395.727,501.675L410.644,501.747L422.848,501.752L433.115,501.752L448.031,501.915L463.822,502.046L477.333,501.745L479.863,501.82L481.902,502.047L482.506,504.342L482.431,508.5L482.469,512.771L482.544,516.245L482.469,519.153L482.469,520.928L481.789,522.023L481.034,522.929L477.57,523.684Z" style="fill:white;stroke:black;stroke-width:1px;"/>
    </g>
    <g>
        <g transform="matrix(1,0,0,1,9.400001,-375.173438)">
            <path d="M144.532,439.479L288.015,387.464L293.048,386.344L292.43,390.671L240.81,469.802L238.646,474.129L231.537,471.965L218.73,466.887L215.385,464.498L217.721,459.774L228.683,442.264L230.011,438.613L226.069,440.314L184.234,459.935L180.517,461.741L185.429,464.475L216.271,478.596L221.665,482.662L224.569,486.354L225.278,488.959L225.544,491.189L224.96,494.588L224.084,497.084L222.457,500.693L212.653,516.471L196.474,542.706L191.516,550.558L167.392,591.151L158.486,605.516L149.818,619.82L147.285,623.242L145.719,623.377L145.482,621.07L145.656,617.774L146.515,607.986L146.803,597.835L148.896,588.925L151.956,579.736L166.084,539.474L171.039,525.76L175.086,514.219L176.408,510.896L177.414,507.706L177.626,504.612L176.621,502.089L174.397,500.117L167.432,495.837L161.839,492.839L158.463,491.15L153.956,488.505L149.659,486.476L142.551,481.853" style="fill:white;stroke:black;stroke-width:1px;"/>
        </g>
        <g transform="matrix(-1,0,0,1,293.548166,-376.749002)">
            <path d="M139.322,441.335L287.793,386.653L293.048,386.344L292.43,390.671L240.81,469.802L238.646,474.129L231.537,471.965L218.73,466.887L215.385,464.498L217.721,459.774L228.683,442.264L230.011,438.613L226.069,440.314L184.234,459.935L180.517,461.741L185.429,464.475L216.935,477.711L222.623,481.777L226.044,485.083L227.344,488.516L227.462,491.484L226.214,494.809L224.895,497.452L222.973,501.21L214.054,517.208L198.465,543.591L192.917,551.296L169.015,592.11L161.068,606.991L152.915,619.967L150.604,623.389L148.964,624.953L147.326,620.554L147.869,617.479L148.138,608.429L148.278,602.039L148.158,597.628L151.956,579.736L167.559,540.027L172.699,527.235L176.192,515.325L177.514,511.633L178.372,507.927L178.659,504.243L176.473,502.458L173.881,500.338L166.8,496.899L160.93,494.149L156.362,491.95L153.401,490.263L148.93,487.735L146.002,486.401L143.408,484.195L141.354,483.319" style="fill:white;stroke:black;stroke-width:1px;"/>
        </g>
    </g>
    <g transform="matrix(1,0,0,1,9.282188,-374.655259)">
        <path d="M508.829,442.294L520.218,442.577L521.595,444.087L521.687,447.037L521.398,458.713L521.36,466.36L521.36,489.055L521.435,495.323L521.775,497.551L522.795,499.137L524.23,500.195L526.156,501.365L531.291,501.63L547.491,501.554L562.294,501.554L574.642,501.781L579.438,501.781L584.876,501.667L589.294,501.667L593.523,500.874L595.298,499.515L596.846,497.174L597.073,494.115L597.073,490.905L597.035,486.034L597.11,480.672L597.078,475.773L597.125,470.534L597.078,465.625L597.172,460.669L597.172,452.691L597.219,449.01L597.267,446.272L597.314,444.431L597.739,442.813L599.06,442.26L600.76,441.782L616.006,441.782L617.8,442.26L619.688,442.813L620.773,443.817L621.057,446.744L621.245,449.812L621.151,453.258L621.151,487.314L621.198,494.253L621.057,497.888L621.057,501.522L621.245,504.342L620.821,506.384L619.357,511.27L616.525,515.518L613.646,518.208L611.474,520.002L609.067,521.513L605.574,522.575L600.24,523.684L514.757,523.684L512,522.716L509.092,521.631L506.118,519.695L503.806,517.625L502.012,515.73L500.596,513.889L499.18,511.86L498.188,510.16L497.244,507.847L496.961,502.112L496.961,498.785L497.056,492.389L497.056,451.676L497.103,446.933L497.103,444.384L497.575,442.543L500.407,442.396L505.363,442.302L508.829,442.294Z" style="fill:white;stroke:black;stroke-width:1px;"/>
    </g>
    <g transform="matrix(1,0,0,1,9.282188,-374.655259)">
        <path d="M648.765,441.782L741.612,441.782L746.757,442.813L750.628,443.77L753.271,445.374L755.82,447.357L758.888,450.897L760.776,453.871L762.004,456.325L762.712,458.402L763.184,460.857L763.089,464.161L763.089,469.471L763.136,474.097L763.136,479.407L763.184,481.887L762.57,485.001L761.862,486.983L760.776,489.155L758.209,492.608L755.754,494.968L752.78,496.903L749.901,498.508L746.927,499.405L744.048,500.207L740.791,500.444L727.716,500.538L702.746,500.538L692.031,500.491L680.561,500.585L668.477,500.491L661.396,500.491L658.847,500.585L658.942,504.409L659.036,508.5L658.989,513.377L659.036,517.625L659.036,519.985L659.131,521.449L657.951,522.676L656.676,523.684L637.276,523.684L635.765,522.393L635.482,519.419L635.482,511.63L635.624,503.63L635.586,494.553L635.548,487.283L635.548,449.049L635.579,445.886L635.533,443.752L636.878,442.514L638.673,442.035L642.385,441.958L648.765,441.782ZM659.234,463.603L659.025,467.708L658.884,473.703L658.73,479.969L662.554,479.969L668.584,480.146L676.313,480.028L684.479,479.992L693.66,480.217L709.19,479.886L720.813,479.886L728.012,480.004L735.966,479.916L737.537,478.708L739.229,477.258L740.045,475.717L740.498,474.116L740.619,471.608L740.619,469.101L739.682,467.137L738.806,465.838L737.054,464.479L734.244,463.814L725.846,463.875L708.778,463.784L693.824,463.784L682.435,463.512L672.858,463.633L659.234,463.603Z" style="fill:white;stroke:black;stroke-width:1px;"/>
    </g>
    <g transform="matrix(1,0,0,1,9.282188,-374.655259)">
        <path d="M773.551,520.115L773.436,446.246L773.943,443.479L775.514,441.782L873.703,441.782L880.371,442.813L885.032,444.438L890.106,448.805L893.115,452.109L894.767,455.531L896.065,459.484L896.501,469.483L896.132,479.117L894.908,485.886L892.944,489.541L889.984,493.076L886.087,495.674L883.066,497.245L880.77,498.09L881.827,500.114L885.323,505.77L888.193,510.604L890.421,514.153L893.064,517.625L894.197,520.044L895.67,523.103L891.138,523.684L870.445,523.684L866.782,518.647L863.987,513.813L861.684,509.811L859.871,505.921L858.285,502.9L857.039,500.634L831.21,500.861L807.458,500.785L798.357,500.71L796.029,500.701L795.978,506.431L795.978,523.684L773.661,523.684L773.551,520.115ZM796.149,463.512L796.149,479.759L869.067,479.759L870.653,478.702L872.013,477.456L873.41,475.87L874.392,474.284L874.392,471.3L874.014,468.166L872.881,466.769L871.597,464.919L869.256,463.512L796.149,463.512Z" style="fill:white;stroke:black;stroke-width:1px;"/>
    </g>
    <g transform="matrix(1,0,0,1,9.282188,-374.655259)">
        <path d="M918.55,441.782L1008.432,441.782L1008.841,523.684L992.751,523.684L992.751,502.919L983.405,502.65L970.802,502.709L929.105,502.709L922.976,502.739L918.6,502.644L918.505,505.193L918.647,509.255L918.694,511.772L918.694,515.625L918.788,520.298L918.733,523.684L902.508,523.684L904.783,463.512L905.079,455.376C907.104,448.089 912.081,444.102 918.55,441.782ZM990.751,482.733L990.751,463.512L920.976,463.512L920.976,482.733L990.751,482.733Z" style="fill:white;stroke:black;stroke-width:1px;"/>
    </g>
    <g transform="matrix(1,0,0,1,9.282188,-374.655259)">
        <path d="M773.635,599.279L773.635,562.457L827.428,562.457L827.428,578.883L792.376,578.883L792.376,596.098L822.342,596.098L822.342,611.673L792.628,611.673L792.628,629.987L827.33,629.987L827.33,645.753L773.733,645.753L773.635,599.279Z" style="fill:white;stroke:black;stroke-width:1px;"/>
    </g>
    <path d="M894.612,254.517L866.41,254.517L861.301,271.098L844.552,271.098L870.331,187.802L889.167,187.802L918.516,269.387L919.127,271.098L900.661,271.098L894.612,254.517ZM872.261,237.954L889.167,237.954L880.244,207.976L872.261,237.954Z" style="fill:white;stroke:black;stroke-width:1px;"/>
    <path d="M931.965,271.098L931.965,204.648L910.945,204.648L910.945,187.802L973.349,187.802L973.349,205.277L950.357,205.277L950.357,271.098L931.965,271.098Z" style="fill:white;stroke:black;stroke-width:1px;"/>
    <path d="M990.236,271.098C990.236,271.098 1000.308,274.755 1006.581,274.448C1012.52,274.66 1018.123,273.831 1022.632,271.098C1029.314,267.046 1033.111,263.929 1034.845,257.939C1036.96,250.635 1037.452,244.228 1033.282,234.81L1030.699,231.503L1027.456,228.913L1022.994,226.612L1016.985,224.759L1010.887,222.965L1003.549,220.252L998.413,217.562L995.233,214.749L994.255,212.181L994.255,207.976L996.7,205.699L998.29,204.354L1000.033,203.62L1003.549,203.131L1006.729,203.253L1009.664,203.375L1012.599,204.231L1015.045,204.843L1017.98,207.976L1019.57,210.102L1020.181,211.936L1032.64,211.936L1033.282,211.9C1036.639,207.106 1028.743,194.877 1026.799,193.516C1020.75,189.871 1013.593,188.037 1005.46,187.802C997.61,188.216 990.213,189.5 984.485,194.158C983.054,194.583 975.625,206.303 976.706,213.002C976.727,221.462 980.339,227.995 988.128,232.288L990.432,233.49L993.137,234.642L995.641,235.493L998.246,236.495L1000.033,237.247L1001.903,237.954L1004.107,238.75L1005.81,239.25L1007.964,239.902L1009.818,240.503L1011.421,240.904L1012.974,241.555L1014.577,242.356L1015.779,243.158L1016.931,244.21L1018.033,245.161C1020.173,248.948 1019.188,252.269 1016.129,255.28C1014.526,256.954 1012.52,257.996 1010.068,258.336C1005.443,261.426 996.128,256.83 995.077,255.176C992.946,253.52 991.93,251.387 992.135,248.568L984.269,248.57L975.778,248.846C975.644,250.487 975.724,252.482 976.3,255.307C976.935,258.417 977.897,260.58 979.817,263.217C980.43,264.233 981.226,265.188 982.19,266.087C982.996,266.838 983.918,267.55 984.947,268.226C986.088,268.976 989.815,270.887 990.236,271.098Z" style="fill:white;stroke:black;stroke-width:1px;"/>
</svg>
