<svg xmlns="http://www.w3.org/2000/svg" width="200" height="200" viewBox="0 0 200 200">
<g>
<path d="M 70.22 173.44 C68.40,172.17 68.00,170.93 68.00,166.58 C68.00,163.66 68.42,159.07 68.93,156.39 C69.43,153.70 71.72,137.77 74.00,121.00 C79.57,80.00 79.99,81.26 56.45,68.04 C35.76,56.42 31.18,51.76 29.57,40.76 C28.96,36.55 29.16,35.75 31.40,33.51 C32.78,32.13 34.64,31.00 35.53,31.00 C36.43,31.00 42.86,33.90 49.83,37.44 C64.32,44.81 77.84,50.52 83.14,51.50 L 86.78 52.18 L 83.89 46.45 C78.76,36.28 81.04,26.47 89.84,20.89 C98.34,15.50 112.64,17.46 117.80,24.73 C123.21,32.34 123.11,42.62 117.57,48.49 C115.75,50.42 114.41,52.00 114.58,52.00 C120.33,52.00 141.67,43.86 155.58,36.36 C161.33,33.26 164.84,32.00 167.73,32.00 C172.41,32.00 173.00,32.88 173.00,39.92 C173.00,50.17 167.50,55.96 146.57,67.77 C132.08,75.94 126.48,80.91 125.42,86.50 C124.63,90.69 126.62,107.78 132.08,143.74 C133.69,154.33 135.00,164.72 135.00,166.84 C135.00,172.22 132.25,174.52 125.92,174.43 C117.82,174.31 118.32,175.17 107.90,143.25 C104.44,132.66 101.37,124.01 101.06,124.02 C100.75,124.03 97.38,134.04 93.57,146.27 C85.60,171.84 84.89,173.53 81.79,174.36 C77.71,175.45 72.50,175.04 70.22,173.44 ZM 79.79 167.75 C80.37,167.06 82.71,160.20 85.00,152.50 C89.78,136.49 96.66,115.57 98.26,112.25 C98.85,111.01 99.91,110.00 100.61,110.00 C103.11,110.00 105.17,114.84 113.59,140.47 C118.28,154.75 122.61,167.03 123.22,167.76 C125.09,170.01 128.46,168.84 128.81,165.81 C128.98,164.33 127.49,152.86 125.50,140.31 C119.40,101.86 118.01,89.90 119.09,85.08 C121.20,75.71 124.17,72.79 141.00,63.52 C154.20,56.26 158.87,53.05 162.83,48.54 C165.95,44.98 167.80,40.47 166.62,39.29 C166.28,38.95 160.26,41.41 153.25,44.77 C129.18,56.30 122.31,58.42 105.49,59.53 C85.12,60.88 67.28,55.37 40.31,39.42 C36.26,37.02 35.37,37.96 36.89,43.04 C38.71,49.11 42.14,52.08 57.50,60.85 C65.20,65.25 73.19,70.27 75.26,71.99 C79.57,75.59 82.67,81.07 83.56,86.68 C84.14,90.30 78.77,134.51 75.44,153.50 C73.90,162.28 73.64,167.31 74.67,168.33 C75.76,169.42 78.68,169.09 79.79,167.75 ZM 106.60 49.50 C112.29,46.16 115.00,42.18 115.00,37.16 C115.00,31.02 113.52,28.31 108.86,25.93 C102.44,22.65 95.69,23.58 91.31,28.36 C88.53,31.39 88.00,32.73 88.00,36.74 C88.01,42.72 90.66,47.24 95.71,49.91 C100.64,52.51 101.51,52.48 106.60,49.50 Z" fill="rgba(221,221,221,1)"/>
</g>
</svg>