<svg xmlns="http://www.w3.org/2000/svg" width="1024" height="1024" viewBox="0 0 1024 1024" version="1.1"><path d="" stroke="none" fill="#f4f8fc" fill-rule="evenodd"/><path d="M 475 154.079 C 422.893 159.765, 375.428 175.858, 330 203.243 C 318.148 210.387, 317.033 211.153, 301 223.150 C 284.604 235.419, 268.979 250, 252.931 268.007 C 243.892 278.150, 232 293.378, 232 294.810 C 232 295.373, 231.605 295.983, 231.123 296.167 C 229.926 296.622, 220.591 311.158, 212.966 324.441 C 192.324 360.399, 178.295 402.844, 171.300 450.500 C 169.087 465.579, 168.772 517.589, 170.794 534 C 175.985 576.135, 186.130 609.549, 206.317 651 C 210.201 658.975, 213.321 666.296, 213.250 667.270 C 213.179 668.243, 210.342 678.593, 206.945 690.270 C 203.548 701.946, 199.711 715.414, 198.417 720.199 C 197.124 724.983, 190.363 748.833, 183.394 773.199 C 168.851 824.038, 163.046 845.910, 163.947 846.467 C 164.970 847.099, 176.993 843.624, 212.783 832.353 C 301.326 804.467, 338.733 793.013, 341.281 793.007 C 342.810 793.003, 347.310 794.843, 351.281 797.096 C 372.573 809.178, 406.002 821.865, 435.500 829.059 C 497.016 844.062, 556.392 841.711, 619 821.794 C 624.225 820.132, 629.400 818.283, 630.500 817.684 C 631.600 817.086, 632.950 816.511, 633.500 816.406 C 641.898 814.812, 688.830 791.520, 694.785 785.991 C 695.728 785.116, 697.323 784.085, 698.328 783.701 C 704.991 781.156, 733.108 759.371, 748.423 744.885 C 758.434 735.417, 775.539 716.479, 782 707.712 C 783.925 705.099, 786.560 701.733, 787.856 700.231 C 792.452 694.905, 809.592 668.264, 815.837 656.740 C 835.219 620.977, 848.113 580.448, 854.569 535 C 856.792 519.348, 857.668 475.274, 856.058 460.039 C 852.567 426.996, 843.723 390.698, 833.513 367.500 C 832.302 364.750, 830.717 360.925, 829.990 359 C 827.952 353.607, 814.350 326.506, 811.290 321.742 C 809.792 319.409, 807.706 315.925, 806.655 314 C 805.603 312.075, 801.669 306, 797.912 300.500 C 758.533 242.852, 695.759 195.532, 627.500 172.043 C 603.929 163.931, 582.616 159.042, 555 155.409 C 540.353 153.483, 488.387 152.619, 475 154.079 M 493.500 211.612 C 437.303 216.121, 390.978 232.683, 346.295 264.239 C 288.558 305.016, 248.162 365.764, 232.576 435.253 C 216.810 505.551, 230.271 581.445, 269.514 643.500 C 275.187 652.471, 276.463 655.238, 276.434 658.500 C 276.414 660.700, 274.067 670.825, 271.218 681 C 255.846 735.904, 251.870 750.872, 251.694 754.500 C 251.519 758.111, 251.750 758.529, 254.068 758.799 C 255.481 758.963, 263.356 757.006, 271.568 754.449 C 295.440 747.016, 329.764 736.428, 339.145 733.603 C 351.754 729.806, 352.789 729.966, 363.915 737.434 C 392.328 756.507, 428.667 770.418, 467.489 777.083 C 509.488 784.293, 562.287 780.029, 603.987 766.058 C 614.550 762.519, 637.938 752.506, 644 748.928 C 646.475 747.467, 651.650 744.454, 655.500 742.233 C 682.329 726.752, 711.177 701.773, 732.425 675.625 C 750.044 653.941, 770.479 617.769, 779.385 592.500 C 791.309 558.666, 797.001 526.561, 796.999 493.144 C 796.998 473.116, 795.661 459.117, 792.020 440.997 C 776.415 363.340, 730.490 295.397, 665.977 254.527 C 629.768 231.587, 593.046 218.579, 550 213.444 C 537.584 211.963, 503.073 210.844, 493.500 211.612 M 388.181 338.453 C 377.750 340.419, 370.638 344.251, 363.017 352.010 C 352.381 362.837, 344.367 379.068, 340.481 397.649 C 338.559 406.839, 338.281 427.955, 339.944 438.500 C 345.258 472.206, 373.285 519.992, 410.567 558.914 C 449.436 599.494, 502.015 633.697, 551.090 650.327 C 570.374 656.861, 582.624 659.192, 600.500 659.729 C 619.580 660.302, 629.956 658.302, 644 651.344 C 651.958 647.401, 654.971 645.165, 662.563 637.569 C 677.016 623.107, 682.665 609.749, 681.814 592.049 C 681.480 585.100, 680.890 582.564, 678.660 578.500 C 676.119 573.868, 670.253 568.526, 666.918 567.806 C 666.138 567.638, 665.275 567.237, 665 566.916 C 663.720 565.423, 604.548 537.801, 601.604 537.323 C 596.920 536.563, 592.229 539.146, 587.750 544.953 C 585.688 547.627, 584 550.144, 584 550.547 C 584 550.950, 583.398 551.779, 582.663 552.390 C 581.927 553, 577.006 559.125, 571.726 566 C 561.694 579.063, 558.268 582, 553.064 582 C 541.642 582, 507.558 564.280, 487 547.653 C 466.406 530.998, 441.979 500.838, 430.854 478.331 C 426.974 470.480, 427.428 468.219, 434.557 459.881 C 448.704 443.333, 451.976 438.819, 453.469 433.792 C 454.311 430.957, 455 427.641, 455 426.424 C 455 422.627, 451.094 411.284, 442.285 389.500 C 437.615 377.950, 432.703 365.575, 431.370 362 C 427.284 351.037, 424.676 346.647, 420.293 343.349 C 413.478 338.222, 400.168 336.193, 388.181 338.453" stroke="none" fill="#fcfcfc" fill-rule="evenodd"/></svg>