<svg xmlns="http://www.w3.org/2000/svg" width="1024" height="1024" viewBox="0 0 1024 1024">
<g>
<path d="M 789.39 725.18 C780.03,730.11 769.91,733.84 756.95,736.67 C734.39,741.61 703.23,743.83 652.50,744.93 C609.81,745.85 435.13,745.91 375.76,745.06 C421.23,745.64 568.59,745.43 649.50,744.64 C700.64,744.14 733.19,741.94 756.95,736.67 C769.83,733.82 780.12,730.06 789.39,725.18 Z" fill="rgba(161,162,162,1)"/>
<path d="M 370.50 744.98 C303.16,743.79 271.70,740.51 247.38,732.13 C225.71,724.66 208.19,709.46 198.25,689.50 C184.38,661.68 180.64,623.67 180.55,509.50 C180.50,437.03 181.22,422.03 186.53,386.46 C193.84,337.51 207.12,313.53 234.60,299.70 C257.42,288.21 289.44,283.40 367.00,279.80 C403.95,278.09 585.30,278.09 631.00,279.80 C724.25,283.30 727.20,283.50 750.86,287.56 C789.07,294.12 810.33,307.65 823.06,333.50 C840.55,369.03 846.34,435.41 843.11,563.50 C841.84,613.90 840.85,628.77 837.46,648.82 C830.79,688.26 816.54,710.89 789.39,725.18 C763.03,739.05 728.38,743.87 649.50,744.64 C565.12,745.46 408.49,745.65 370.50,744.98 ZM 473.00 595.28 C492.52,584.30 522.00,567.75 538.50,558.51 C555.00,549.27 576.60,537.12 586.50,531.51 C596.40,525.90 607.31,519.79 610.75,517.92 C614.19,516.06 616.98,514.30 616.95,514.02 C616.92,513.73 607.80,508.36 596.70,502.07 C579.24,492.19 467.11,426.97 444.67,413.65 C440.36,411.09 436.65,409.00 436.42,409.00 C436.19,409.00 436.00,455.60 436.00,512.56 C436.00,569.52 436.34,615.92 436.75,615.68 C437.16,615.44 453.48,606.26 473.00,595.28 Z" fill="rgba(246,246,246,1)"/>
</g>
</svg>