<svg xmlns="http://www.w3.org/2000/svg" width="200" height="200" viewBox="0 0 200 200">
<g>
<path d="M 53.43 123.05 C51.74,121.94 49.75,119.90 49.01,118.51 C47.76,116.19 47.13,116.00 40.47,116.00 C39.32,116.00 38.35,115.99 37.50,115.96 C38.94,115.85 40.00,115.46 40.00,115.00 C40.00,114.45 38.21,114.00 36.02,114.00 C32.90,114.00 31.70,113.47 30.44,111.54 C28.88,109.16 29.26,106.42 31.00,107.50 C32.38,108.35 33.19,106.18 32.42,103.74 C31.72,101.57 31.68,101.56 30.89,103.50 C30.42,104.66 30.33,103.22 30.68,100.10 C31.13,96.16 30.99,94.89 30.15,95.41 C29.35,95.90 29.02,94.81 29.08,91.81 C29.12,89.44 29.37,88.02 29.63,88.65 C29.93,89.38 30.99,88.92 32.50,87.41 C33.96,85.95 35.52,85.26 36.50,85.64 C37.38,85.98 41.12,85.00 44.80,83.47 C44.89,83.44 44.97,83.40 45.06,83.36 C43.24,84.20 41.75,84.88 40.79,85.31 C36.48,87.23 34.91,88.50 34.42,90.47 C34.06,91.91 33.99,93.32 34.27,93.60 C34.54,93.88 34.17,96.12 33.42,98.59 C31.09,106.34 33.98,110.30 41.61,109.81 C45.73,109.54 46.46,109.16 47.04,106.97 C47.41,105.58 49.09,102.93 50.78,101.08 C51.89,99.86 53.24,98.90 54.72,98.22 C54.68,98.24 54.65,98.27 54.62,98.29 C53.05,99.43 53.29,99.61 56.68,99.80 C62.54,100.13 69.09,102.30 70.13,104.25 C70.65,105.21 71.62,105.96 72.29,105.92 C72.47,105.91 72.62,105.89 72.73,105.87 C72.91,106.55 73.00,107.22 73.00,107.88 C73.00,108.86 73.31,109.97 73.68,110.35 C74.05,110.72 89.22,110.91 107.39,110.76 L 140.43 110.50 L 141.31 106.76 C141.40,106.36 141.52,105.98 141.65,105.60 C141.58,105.81 141.52,106.03 141.47,106.25 C141.01,108.07 141.18,109.00 141.95,109.00 C142.59,109.00 142.80,108.44 142.41,107.75 C141.86,106.78 141.99,106.76 142.99,107.69 C144.01,108.63 145.00,108.14 147.67,105.40 C147.84,105.22 148.01,105.05 148.19,104.88 C147.02,106.69 146.00,109.25 146.00,110.87 C146.00,111.96 147.17,114.23 148.59,115.92 C152.02,120.00 156.92,120.19 159.93,116.37 C161.40,114.50 162.08,111.88 161.98,109.49 C162.61,112.24 164.13,112.25 166.23,109.47 C166.91,108.57 167.29,107.99 167.37,107.35 C167.41,107.60 167.46,107.83 167.50,108.00 C167.64,108.55 167.81,109.47 167.88,110.05 C167.95,110.69 170.40,110.98 174.18,110.80 L 180.36 110.50 L 181.02 107.57 C181.02,107.67 181.02,107.77 181.02,107.87 C181.00,109.66 181.31,109.99 182.25,109.21 C183.21,108.42 183.53,108.98 183.62,111.59 C183.68,113.46 183.35,115.00 182.87,115.00 C182.39,115.00 182.00,115.45 182.00,116.00 C182.00,116.31 182.14,116.59 182.36,116.77 C181.05,116.99 179.02,117.00 175.58,117.00 C167.54,117.00 167.08,117.13 163.86,120.18 C161.45,122.47 159.17,123.55 155.80,124.00 C150.53,124.70 148.96,124.11 144.20,119.62 L 140.89 116.50 L 107.60 116.21 L 74.31 115.92 L 70.33 119.90 C65.23,125.01 58.34,126.29 53.43,123.05 ZM 82.68 105.35 C81.18,103.84 82.09,101.22 84.25,100.87 C85.49,100.66 97.21,100.64 110.31,100.82 L 134.12 101.13 L 133.81 103.32 C133.50,105.49 133.34,105.50 108.43,105.77 C94.65,105.91 83.06,105.73 82.68,105.35 ZM 65.55 116.55 C71.67,110.42 65.33,100.25 57.17,103.09 C51.78,104.97 50.55,111.12 54.59,115.92 C57.85,119.80 62.05,120.04 65.55,116.55 ZM 116.59 65.81 C120.38,67.35 124.68,69.62 130.69,72.92 C134.13,74.81 137.26,76.36 140.40,77.70 C137.77,76.62 135.36,75.51 133.42,74.46 C124.17,69.45 119.58,67.51 120.50,69.00 C121.12,70.00 119.18,70.41 115.64,70.03 C114.53,69.92 114.05,70.27 114.45,70.92 C114.82,71.51 115.62,72.00 116.23,72.00 C116.84,72.00 118.05,72.63 118.92,73.41 C119.42,73.85 120.30,74.45 121.44,75.15 C109.08,68.72 104.86,68.00 92.50,68.00 C80.25,68.00 74.87,69.39 60.00,76.40 C59.24,76.76 58.48,77.12 57.70,77.48 C57.82,77.25 57.81,76.94 57.67,76.57 C57.37,75.79 57.76,74.61 58.55,73.96 C59.33,73.31 59.69,72.26 59.33,71.64 C58.97,71.01 59.03,70.82 59.46,71.20 C59.89,71.59 60.90,71.25 61.70,70.44 C62.50,69.64 63.64,69.28 64.24,69.65 C64.87,70.04 65.02,69.84 64.60,69.15 C63.93,68.08 65.32,67.61 68.74,67.73 C69.42,67.75 69.70,67.32 69.35,66.76 C69.00,66.20 69.34,65.95 70.11,66.21 C70.87,66.46 71.50,67.42 71.51,68.33 C71.52,69.24 71.85,69.99 72.26,69.99 C75.45,70.03 76.00,69.88 76.00,69.00 C76.00,68.45 75.32,68.00 74.50,68.00 C72.51,68.00 72.57,65.38 74.58,64.61 C76.72,63.79 83.92,64.01 87.00,65.00 C89.40,65.77 89.41,65.80 87.25,65.90 C86.01,65.96 85.00,66.45 85.00,67.00 C85.00,67.59 88.48,68.00 93.44,68.00 C98.08,68.00 102.16,67.55 102.50,67.00 C102.86,66.41 101.79,66.00 99.89,66.00 C95.49,66.00 96.51,65.40 102.36,64.55 C105.31,64.12 106.99,64.21 106.63,64.78 C106.32,65.30 107.14,65.60 108.46,65.45 C111.22,65.15 110.96,67.65 108.16,68.23 C107.07,68.46 107.61,68.97 109.75,69.74 C112.45,70.70 113.00,70.65 113.00,69.45 C113.00,68.65 113.19,68.00 113.42,68.00 C113.65,68.00 114.62,67.70 115.58,67.33 C116.76,66.88 117.10,67.03 116.61,67.82 C116.13,68.60 116.45,68.76 117.59,68.33 C119.16,67.72 119.15,67.59 117.50,66.38 C117.23,66.18 116.93,65.99 116.59,65.81 ZM 86.00 103.92 C87.38,104.31 97.21,104.48 107.85,104.29 C123.20,104.01 127.50,103.64 128.67,102.47 C129.97,101.18 127.49,101.00 108.01,101.00 C93.51,101.00 86.10,101.34 86.50,102.00 C86.84,102.55 86.30,103.04 85.31,103.10 C84.07,103.17 84.29,103.43 86.00,103.92 ZM 181.79 90.91 C184.05,91.92 185.36,92.81 186.30,93.79 C188.21,95.78 189.22,98.70 188.99,100.67 C188.70,100.17 187.22,100.44 185.34,101.65 C183.34,102.92 182.23,103.80 181.64,104.82 C182.75,99.88 182.68,99.32 180.80,97.30 C179.92,96.36 178.32,95.38 176.85,94.81 C177.02,94.84 177.16,94.87 177.25,94.88 C177.98,95.00 181.24,92.03 181.79,90.91 ZM 82.28 113.26 C78.55,113.45 83.38,113.62 93.00,113.63 C103.34,113.65 107.84,113.41 104.00,113.05 C99.55,112.64 98.29,112.26 100.00,111.86 C101.38,111.54 99.21,111.21 95.19,111.14 C90.78,111.05 88.12,111.38 88.47,111.95 C88.82,112.51 86.24,113.05 82.28,113.26 ZM 114.46 112.87 C111.09,113.66 111.98,113.81 120.32,113.90 C129.05,113.99 129.98,113.83 128.64,112.50 C126.99,110.85 121.00,110.43 121.00,111.97 C121.00,112.50 120.42,112.71 119.71,112.44 C119.00,112.17 116.63,112.36 114.46,112.87 ZM 50.95 80.64 C53.39,79.32 53.63,78.71 50.86,79.36 C48.76,79.86 48.25,79.63 48.36,78.24 C48.53,76.10 50.62,74.65 52.16,75.60 C52.87,76.04 53.04,75.87 52.60,75.15 C51.61,73.56 52.85,73.70 54.52,75.38 C55.28,76.14 55.63,77.04 55.29,77.38 C54.95,77.72 55.46,78.00 56.44,78.00 C56.50,78.00 56.55,78.00 56.60,78.00 C54.70,78.89 52.78,79.79 50.95,80.64 ZM 155.50 102.00 C155.72,102.36 156.01,102.68 156.24,102.86 C155.32,102.64 154.33,102.50 153.40,102.46 C153.73,102.28 154.05,102.02 154.32,101.67 C156.00,99.50 162.00,99.02 162.00,101.06 C162.00,101.64 161.44,101.79 160.75,101.39 C160.06,100.99 160.36,101.63 161.40,102.83 C162.45,104.02 162.88,105.00 162.36,105.00 C161.90,105.00 161.65,106.13 161.73,107.63 C161.43,106.38 160.87,105.28 160.04,104.54 C159.31,103.88 158.07,103.33 156.68,102.96 C156.86,102.85 157.00,102.46 157.00,102.00 C157.00,101.45 156.52,101.00 155.94,101.00 C155.36,101.00 155.16,101.45 155.50,102.00 ZM 31.99 110.99 C32.59,112.09 33.54,113.00 34.11,113.00 C34.68,113.00 34.44,112.29 33.57,111.43 C32.71,110.56 32.00,109.57 32.00,109.23 C32.00,108.88 32.54,109.14 33.20,109.80 C33.86,110.46 36.22,110.93 38.45,110.85 C41.86,110.72 42.03,110.63 39.50,110.26 C37.85,110.02 35.94,109.36 35.26,108.80 C34.58,108.24 33.33,108.04 32.47,108.37 C31.24,108.84 31.14,109.40 31.99,110.99 ZM 135.21 112.46 C136.90,114.38 140.00,114.41 140.00,112.50 C140.00,111.50 139.00,111.00 136.96,111.00 C134.37,111.00 134.11,111.22 135.21,112.46 ZM 151.39 84.58 C152.01,86.18 149.70,86.38 146.50,85.00 C144.61,84.19 144.63,84.14 146.81,84.07 C148.08,84.03 148.84,83.56 148.51,83.01 C148.16,82.46 148.54,82.27 149.37,82.59 C150.18,82.90 151.09,83.79 151.39,84.58 ZM 61.32 73.94 C57.75,75.86 57.70,75.96 60.50,75.36 C64.52,74.51 67.80,72.77 66.32,72.27 C65.67,72.06 63.42,72.81 61.32,73.94 ZM 39.82 78.90 C51.16,73.47 68.34,65.58 72.00,64.26 C73.77,63.62 75.96,63.20 79.30,62.94 C75.12,63.45 72.54,64.33 67.77,66.31 C60.93,69.15 48.62,74.74 39.82,78.90 ZM 152.14 97.33 C156.63,96.47 161.45,97.56 164.44,101.11 C165.85,102.78 167.06,104.79 167.12,105.58 C167.14,105.74 167.16,105.92 167.18,106.10 C166.99,105.55 166.66,104.87 166.19,103.94 C163.50,98.63 157.56,96.54 152.14,97.33 ZM 143.17 85.20 C142.20,84.86 141.24,84.51 140.30,84.15 C140.60,84.20 140.77,84.19 140.80,84.09 C141.35,82.46 143.00,82.77 143.00,84.50 C143.00,84.75 143.06,84.99 143.17,85.20 ZM 30.59 112.92 C31.61,114.14 32.50,114.92 33.48,115.39 C32.42,115.01 31.66,114.39 30.66,113.39 C29.28,112.00 27.88,109.52 27.48,107.75 C27.93,109.11 29.26,111.35 30.59,112.92 ZM 164.76 91.16 C160.44,90.58 153.58,88.72 146.76,86.44 C147.99,86.73 149.91,87.32 154.50,88.73 C157.89,89.77 162.19,90.78 164.76,91.16 ZM 71.64 103.29 C72.06,104.01 72.39,104.75 72.62,105.50 C72.52,105.45 72.39,105.40 72.24,105.34 C71.55,105.06 71.24,104.42 71.55,103.91 C71.70,103.67 71.72,103.45 71.64,103.29 ZM 58.82 97.06 C61.72,96.72 64.73,97.29 67.26,98.85 C67.33,98.90 67.40,98.94 67.46,98.98 C65.06,97.56 61.67,96.89 58.82,97.06 ZM 70.39 101.54 C70.85,102.08 71.26,102.66 71.61,103.26 C71.51,103.10 71.30,103.00 71.00,103.00 C70.39,103.00 70.14,102.59 70.45,102.09 C70.53,101.95 70.50,101.77 70.39,101.54 ZM 186.77 109.67 C186.50,111.32 186.02,113.00 185.47,114.05 C185.32,114.34 185.19,114.60 185.06,114.84 C185.79,113.43 186.44,111.53 186.77,109.67 ZM 27.64 96.63 C28.03,91.68 28.68,86.62 29.28,84.74 C28.71,86.64 28.05,91.72 27.64,96.63 ZM 156.65 83.02 C161.98,84.50 166.33,85.73 169.90,86.80 C165.93,85.64 161.32,84.33 156.65,83.02 ZM 188.78 101.51 C188.62,101.94 188.36,102.28 188.00,102.50 C187.98,102.51 187.96,102.53 187.94,102.55 C188.02,102.41 188.10,102.30 188.18,102.22 C188.45,101.95 188.65,101.72 188.78,101.51 Z" fill="rgba(218,218,218,1)"/>
<path d="M 182.00 116.00 C182.00,115.45 182.39,115.00 182.87,115.00 C183.35,115.00 183.68,113.46 183.62,111.59 C183.53,108.98 183.21,108.42 182.25,109.21 C181.31,109.99 181.00,109.66 181.02,107.87 C181.03,104.94 181.73,103.95 185.34,101.65 C188.29,99.77 190.24,100.16 188.18,102.22 C187.53,102.87 187.00,105.13 187.00,107.25 C187.00,111.29 184.64,117.00 182.97,117.00 C182.44,117.00 182.00,116.55 182.00,116.00 ZM 30.59 112.92 C29.16,111.23 27.73,108.77 27.40,107.46 C26.63,104.39 28.45,85.14 29.61,84.02 C30.71,82.97 56.58,70.96 67.77,66.31 C75.18,63.23 77.32,62.81 88.33,62.29 C101.09,61.69 113.46,63.42 117.50,66.38 C119.15,67.59 119.16,67.72 117.59,68.33 C116.45,68.76 116.13,68.60 116.61,67.82 C117.10,67.03 116.76,66.88 115.58,67.33 C114.62,67.70 113.65,68.00 113.42,68.00 C113.19,68.00 113.00,68.65 113.00,69.45 C113.00,70.65 112.45,70.70 109.75,69.74 C107.61,68.97 107.07,68.46 108.16,68.23 C110.96,67.65 111.22,65.15 108.46,65.45 C107.14,65.60 106.32,65.30 106.63,64.78 C106.99,64.21 105.31,64.12 102.36,64.55 C96.51,65.40 95.49,66.00 99.89,66.00 C101.79,66.00 102.86,66.41 102.50,67.00 C102.16,67.55 98.08,68.00 93.44,68.00 C88.48,68.00 85.00,67.59 85.00,67.00 C85.00,66.45 86.01,65.96 87.25,65.90 C89.41,65.80 89.40,65.77 87.00,65.00 C83.92,64.01 76.72,63.79 74.58,64.61 C72.57,65.38 72.51,68.00 74.50,68.00 C75.32,68.00 76.00,68.45 76.00,69.00 C76.00,69.88 75.45,70.03 72.26,69.99 C71.85,69.99 71.52,69.24 71.51,68.33 C71.50,67.42 70.87,66.46 70.11,66.21 C69.34,65.95 69.00,66.20 69.35,66.76 C69.70,67.32 69.42,67.75 68.74,67.73 C65.32,67.61 63.93,68.08 64.60,69.15 C65.02,69.84 64.87,70.04 64.24,69.65 C63.64,69.28 62.50,69.64 61.70,70.44 C60.90,71.25 59.89,71.59 59.46,71.20 C59.03,70.82 58.97,71.01 59.33,71.64 C59.69,72.26 59.33,73.31 58.55,73.96 C57.76,74.61 57.37,75.79 57.67,76.57 C58.01,77.48 57.57,78.00 56.44,78.00 C55.46,78.00 54.95,77.72 55.29,77.38 C55.63,77.04 55.28,76.14 54.52,75.38 C52.85,73.70 51.61,73.56 52.60,75.15 C53.04,75.87 52.87,76.04 52.16,75.60 C50.62,74.65 48.53,76.10 48.36,78.24 C48.25,79.63 48.76,79.86 50.86,79.36 C55.20,78.34 52.13,80.43 44.80,83.47 C41.12,85.00 37.38,85.98 36.50,85.64 C35.52,85.26 33.96,85.95 32.50,87.41 C30.99,88.92 29.93,89.38 29.63,88.65 C29.37,88.02 29.12,89.44 29.08,91.81 C29.02,94.81 29.35,95.90 30.15,95.41 C30.99,94.89 31.13,96.16 30.68,100.10 C30.33,103.22 30.42,104.66 30.89,103.50 C31.68,101.56 31.72,101.57 32.42,103.74 C33.19,106.18 32.38,108.35 31.00,107.50 C29.26,106.42 28.88,109.16 30.44,111.54 C31.70,113.47 32.90,114.00 36.02,114.00 C38.21,114.00 40.00,114.45 40.00,115.00 C40.00,115.55 38.47,116.00 36.59,116.00 C34.01,116.00 32.55,115.25 30.59,112.92 ZM 82.28 113.26 C86.24,113.05 88.82,112.51 88.47,111.95 C88.12,111.38 90.78,111.05 95.19,111.14 C99.21,111.21 101.38,111.54 100.00,111.86 C98.29,112.26 99.55,112.64 104.00,113.05 C107.84,113.41 103.34,113.65 93.00,113.63 C83.38,113.62 78.55,113.45 82.28,113.26 ZM 114.46 112.87 C116.63,112.36 119.00,112.17 119.71,112.44 C120.42,112.71 121.00,112.50 121.00,111.97 C121.00,110.43 126.99,110.85 128.64,112.50 C129.98,113.83 129.05,113.99 120.32,113.90 C111.98,113.81 111.09,113.66 114.46,112.87 ZM 135.21 112.46 C134.11,111.22 134.37,111.00 136.96,111.00 C139.00,111.00 140.00,111.50 140.00,112.50 C140.00,114.41 136.90,114.38 135.21,112.46 ZM 31.99 110.99 C31.14,109.40 31.24,108.84 32.47,108.37 C33.33,108.04 34.58,108.24 35.26,108.80 C35.94,109.36 37.85,110.02 39.50,110.26 C42.03,110.63 41.86,110.72 38.45,110.85 C36.22,110.93 33.86,110.46 33.20,109.80 C32.54,109.14 32.00,108.88 32.00,109.23 C32.00,109.57 32.71,110.56 33.57,111.43 C34.44,112.29 34.68,113.00 34.11,113.00 C33.54,113.00 32.59,112.09 31.99,110.99 ZM 161.79 108.33 C161.58,106.50 161.83,105.00 162.36,105.00 C162.88,105.00 162.45,104.02 161.40,102.83 C160.36,101.63 160.06,100.99 160.75,101.39 C161.44,101.79 162.00,101.64 162.00,101.06 C162.00,99.02 156.00,99.50 154.32,101.67 C153.67,102.51 152.66,102.91 152.09,102.56 C151.52,102.20 149.53,103.48 147.67,105.40 C145.00,108.14 144.01,108.63 142.99,107.69 C141.99,106.76 141.86,106.78 142.41,107.75 C142.80,108.44 142.59,109.00 141.95,109.00 C141.18,109.00 141.01,108.07 141.47,106.25 C144.18,95.41 161.06,93.83 166.19,103.94 C167.77,107.05 167.77,107.43 166.23,109.47 C163.87,112.60 162.24,112.19 161.79,108.33 ZM 70.13 104.25 C69.09,102.30 62.54,100.13 56.68,99.80 C53.29,99.61 53.05,99.43 54.62,98.29 C57.30,96.33 63.82,96.73 67.64,99.09 C69.49,100.23 70.76,101.58 70.45,102.09 C70.14,102.59 70.39,103.00 71.00,103.00 C71.61,103.00 71.86,103.41 71.55,103.91 C71.24,104.42 71.55,105.06 72.24,105.34 C73.18,105.71 73.19,105.86 72.29,105.92 C71.62,105.96 70.65,105.21 70.13,104.25 ZM 86.00 103.92 C84.29,103.43 84.07,103.17 85.31,103.10 C86.30,103.04 86.84,102.55 86.50,102.00 C86.10,101.34 93.51,101.00 108.01,101.00 C127.49,101.00 129.97,101.18 128.67,102.47 C127.50,103.64 123.20,104.01 107.85,104.29 C97.21,104.48 87.38,104.31 86.00,103.92 ZM 155.50 102.00 C155.16,101.45 155.36,101.00 155.94,101.00 C156.52,101.00 157.00,101.45 157.00,102.00 C157.00,102.55 156.80,103.00 156.56,103.00 C156.32,103.00 155.84,102.55 155.50,102.00 ZM 174.50 94.28 C173.40,94.01 171.92,93.31 171.21,92.74 C170.50,92.16 168.03,91.51 165.71,91.28 C163.40,91.06 158.35,89.91 154.50,88.73 C146.69,86.32 146.60,86.30 144.50,86.12 C143.68,86.06 143.00,85.32 143.00,84.50 C143.00,82.77 141.35,82.46 140.80,84.09 C140.44,85.18 122.05,76.19 118.92,73.41 C118.05,72.63 116.84,72.00 116.23,72.00 C115.62,72.00 114.82,71.51 114.45,70.92 C114.05,70.27 114.53,69.92 115.64,70.03 C119.18,70.41 121.12,70.00 120.50,69.00 C119.58,67.51 124.17,69.45 133.42,74.46 C138.28,77.09 146.08,80.10 153.00,82.01 C166.84,85.83 181.37,90.13 181.83,90.54 C182.34,90.99 178.10,95.02 177.25,94.88 C176.84,94.82 175.60,94.55 174.50,94.28 ZM 151.39 84.58 C151.09,83.79 150.18,82.90 149.37,82.59 C148.54,82.27 148.16,82.46 148.51,83.01 C148.84,83.56 148.08,84.03 146.81,84.07 C144.63,84.14 144.61,84.19 146.50,85.00 C149.70,86.38 152.01,86.18 151.39,84.58 ZM 61.32 73.94 C63.42,72.81 65.67,72.06 66.32,72.27 C67.80,72.77 64.52,74.51 60.50,75.36 C57.70,75.96 57.75,75.86 61.32,73.94 Z" fill="rgba(222,222,222,1)"/>
</g>
</svg>