<svg xmlns="http://www.w3.org/2000/svg" width="200" height="200" viewBox="0 0 200 200">
<g>
<path d="M 71.38 159.56 C67.06,157.68 65.00,154.34 65.00,149.20 C65.00,145.72 65.59,144.26 67.92,141.92 C70.39,139.45 71.64,139.00 75.97,139.00 C82.91,139.00 86.00,141.93 86.00,148.50 C86.00,154.50 83.85,158.51 79.88,159.89 C75.92,161.27 75.24,161.25 71.38,159.56 ZM 79.00 153.00 C80.10,151.90 81.00,150.32 81.00,149.50 C81.00,147.67 77.48,144.00 75.72,144.00 C73.48,144.00 70.00,147.05 70.00,149.02 C70.00,151.15 73.67,155.00 75.69,155.00 C76.41,155.00 77.90,154.10 79.00,153.00 ZM 120.50 160.05 C117.62,158.85 114.37,154.94 113.61,151.76 C112.80,148.31 115.03,142.79 118.12,140.63 C121.73,138.10 128.59,138.50 131.50,141.41 C139.85,149.75 131.16,164.46 120.50,160.05 ZM 127.17 153.35 C129.26,151.45 129.57,147.97 127.80,146.20 C125.90,144.30 121.21,144.74 120.04,146.93 C118.56,149.68 118.73,150.73 121.00,153.00 C123.43,155.43 124.78,155.51 127.17,153.35 ZM 74.01 133.72 C66.89,129.96 65.06,124.76 60.95,96.50 C57.56,73.25 53.26,49.36 52.06,47.11 C50.02,43.29 46.87,42.14 37.00,41.61 C31.77,41.33 27.39,41.08 27.25,41.05 C27.11,41.02 27.00,39.91 27.00,38.59 C27.00,36.54 27.62,36.07 31.10,35.48 C36.35,34.60 47.61,35.76 51.50,37.60 C55.06,39.27 58.71,44.31 59.61,48.79 L 60.25 52.00 L 106.54 52.00 C132.00,52.00 153.55,52.27 154.42,52.61 C156.80,53.52 156.44,57.26 151.60,81.74 C144.08,119.77 143.75,120.00 98.79,120.00 L 70.95 120.00 L 72.37 122.75 C73.15,124.27 74.79,126.40 76.00,127.50 C78.07,129.38 80.00,129.53 107.85,130.00 L 137.50 130.50 L 137.50 133.00 L 137.50 135.50 L 107.93 135.76 C78.75,136.03 78.31,136.00 74.01,133.72 ZM 133.58 110.90 C139.43,107.02 141.49,101.74 145.98,79.10 C148.19,67.95 150.00,58.65 150.00,58.42 C150.00,58.19 129.94,58.00 105.42,58.00 L 60.84 58.00 L 61.38 60.75 C61.67,62.26 63.55,74.06 65.54,86.97 C67.53,99.87 69.60,111.26 70.15,112.27 C71.07,114.00 72.84,114.09 100.39,113.81 L 129.65 113.50 L 133.58 110.90 Z" fill="rgba(219,220,220,1)"/>
</g>
</svg>