<svg xmlns="http://www.w3.org/2000/svg" width="1024" height="1024" viewBox="0 0 1024 1024">
<g>
<path d="M 497.90 868.25 C496.09,865.09 493.89,861.15 493.00,859.50 C492.11,857.85 484.95,844.58 477.08,830.00 C455.45,789.92 455.18,789.43 447.80,775.66 C444.01,768.59 436.95,755.54 432.10,746.66 C427.25,737.77 416.40,717.90 407.99,702.50 C391.48,672.24 390.99,671.34 378.01,647.50 C354.98,605.17 348.93,594.12 324.43,549.50 C316.27,534.65 307.30,518.22 304.48,513.00 C301.67,507.77 295.61,496.75 291.01,488.50 C278.83,466.64 272.00,453.93 270.48,450.29 C268.18,444.79 267.78,438.86 269.37,433.67 C271.53,426.62 274.66,422.64 281.71,418.02 C285.15,415.75 313.96,400.86 345.73,384.92 C377.50,368.98 403.65,355.51 403.83,354.98 C404.01,354.45 402.92,353.54 401.40,352.96 C397.41,351.44 385.09,345.45 323.57,315.07 C293.36,300.16 268.27,288.08 267.81,288.23 C267.35,288.38 269.82,293.46 273.30,299.50 C282.66,315.80 298.07,343.26 303.55,353.43 C307.47,360.70 308.10,362.53 306.93,363.22 C306.14,363.69 294.70,369.93 281.50,377.10 C268.30,384.26 256.45,390.81 255.17,391.64 C253.89,392.47 252.26,392.93 251.55,392.66 C250.85,392.39 248.47,389.09 246.27,385.33 C244.07,381.57 235.39,367.25 226.98,353.50 C218.57,339.75 209.11,324.23 205.96,319.00 C200.46,309.86 192.75,297.18 165.85,253.00 C133.09,199.22 127.64,190.33 126.02,188.00 C123.86,184.90 102.72,150.33 101.11,147.25 C100.23,145.58 100.22,145.00 101.08,145.00 C102.83,145.00 141.62,159.70 177.50,173.97 C187.40,177.90 204.73,184.67 216.00,189.00 C227.27,193.33 251.12,202.55 269.00,209.50 C286.88,216.45 310.73,225.66 322.00,229.98 C333.27,234.30 351.95,241.51 363.50,246.00 C375.05,250.49 387.20,255.19 390.50,256.43 C393.80,257.67 415.17,265.99 438.00,274.91 C460.83,283.83 483.10,292.51 487.50,294.20 C491.90,295.89 499.45,298.97 504.27,301.05 L 513.05 304.83 L 518.77 302.55 C521.92,301.29 525.62,299.77 527.00,299.16 C528.38,298.55 545.92,291.59 566.00,283.68 C586.08,275.77 613.97,264.78 628.00,259.25 C642.03,253.73 665.88,244.40 681.00,238.52 C696.12,232.64 713.67,225.80 720.00,223.32 C730.55,219.18 773.64,202.41 794.00,194.53 C798.67,192.72 810.83,187.98 821.00,184.00 C831.17,180.02 848.28,173.42 859.00,169.33 C883.74,159.89 905.14,151.63 915.92,147.36 C920.56,145.52 924.55,144.22 924.80,144.47 C925.29,144.96 925.44,144.69 911.82,167.00 C906.62,175.52 894.12,196.00 884.05,212.50 C873.97,229.00 863.38,246.32 860.50,251.00 C841.70,281.51 830.02,300.73 794.25,360.00 C784.13,376.77 775.46,390.89 774.99,391.38 C773.28,393.15 770.64,391.87 730.74,369.84 C723.73,365.96 717.81,362.50 717.59,362.15 C717.18,361.47 719.43,357.31 737.68,325.00 C754.20,295.76 757.58,289.24 756.68,288.35 C755.92,287.59 718.44,306.08 651.13,340.43 C635.53,348.39 622.50,355.16 622.19,355.48 C621.88,355.79 622.27,356.68 623.06,357.45 C624.47,358.82 649.58,371.51 683.50,387.98 C733.91,412.46 742.80,417.07 747.34,421.07 C753.78,426.73 757.39,433.90 757.39,441.00 C757.38,447.24 756.08,450.12 742.30,474.34 C737.65,482.49 731.71,493.07 729.10,497.84 C726.48,502.60 718.13,517.53 710.53,531.00 C702.94,544.47 692.14,563.83 686.53,574.00 C680.93,584.17 669.01,605.55 660.04,621.50 C634.01,667.81 586.03,754.34 570.49,783.00 C567.66,788.22 562.04,798.35 558.02,805.50 C553.99,812.65 548.38,822.78 545.54,828.00 C531.17,854.43 521.66,871.00 520.88,871.00 C519.45,871.00 519.90,857.75 521.99,838.19 C526.89,792.36 535.49,753.51 554.47,691.50 C559.07,676.46 572.91,630.44 577.62,614.50 C579.57,607.90 583.36,595.30 586.04,586.50 C598.53,545.50 609.42,508.83 611.13,502.00 C613.59,492.19 612.45,486.97 606.22,479.50 C603.10,475.76 600.79,474.20 584.00,464.47 C564.82,453.37 521.29,428.18 516.26,425.28 L 512.02 422.84 L 490.76 435.04 C446.48,460.47 423.52,474.53 419.28,478.84 C412.12,486.11 410.52,495.31 414.48,506.50 C415.26,508.70 419.75,523.33 424.45,539.00 C433.49,569.08 446.18,610.57 457.82,648.00 C488.17,745.62 491.68,759.24 499.46,809.12 C501.10,819.62 504.20,860.59 503.87,867.31 C503.44,875.81 502.33,875.99 497.90,868.25 Z" fill="rgba(254,254,254,1)"/>
</g>
</svg>