<svg width="118" height="118" viewBox="0 0 118 118" fill="none" xmlns="http://www.w3.org/2000/svg">
<path d="M23.94 52.72L23.46 52.69" stroke="#1D6AAB" stroke-width="2"/>
<path d="M23.4598 52.69C19.8598 50.21 15.0198 50.37 10.8898 50.52C10.5557 50.5331 10.2377 50.667 9.99487 50.8969C9.75208 51.1268 9.60103 51.4371 9.56979 51.77L8.77979 61.05" stroke="#253473" stroke-width="2"/>
<path d="M8.77988 61.05C6.88988 62.74 6.96988 67.06 6.62988 69.46" stroke="#1D6AAB" stroke-width="2"/>
<path d="M23.4598 52.69C22.2198 54.4 21.6398 56.59 20.2598 57.92C17.0798 61 12.8598 60.71 8.77979 61.05" stroke="#1B639D" stroke-width="2"/>
<path d="M23.94 52.72L23.46 52.69C19.86 50.21 15.02 50.37 10.89 50.52C10.5559 50.5331 10.2379 50.667 9.99509 50.8969C9.7523 51.1269 9.60124 51.4371 9.57 51.77L8.78 61.05C6.89 62.74 6.97 67.06 6.63 69.46C4.38333 70.6533 2.17333 70.8034 0 69.91V68.3L3.59 45.39C3.64987 45.0003 3.83883 44.6426 4.12589 44.3755C4.41296 44.1084 4.78111 43.9478 5.17 43.92C9.88333 43.5667 14.25 43.7267 18.27 44.4C22.8 45.16 22.63 49.38 23.94 52.72Z" fill="#263B80"/>
<path d="M23.4598 52.69C22.2198 54.4 21.6398 56.59 20.2598 57.92C17.0798 61 12.8598 60.71 8.77979 61.05L9.56979 51.77C9.60103 51.4371 9.75208 51.1268 9.99487 50.8969C10.2377 50.667 10.5557 50.5331 10.8898 50.52C15.0198 50.37 19.8598 50.21 23.4598 52.69Z" fill="#232C65"/>
<path d="M38.5701 69.52H36.3201C36.1939 69.5202 36.0691 69.4929 35.9545 69.4401C35.8399 69.3873 35.7382 69.3101 35.6563 69.214C35.5745 69.1179 35.5146 69.0052 35.4807 68.8836C35.4468 68.7621 35.4398 68.6346 35.4601 68.51L38.0301 52.54C38.0586 52.3721 38.1393 52.2181 38.26 52.101C38.3807 51.9839 38.5351 51.9098 38.7001 51.89C41.9501 51.49 48.6201 51.2 50.5401 53.95C50.9001 54.4633 51.0367 55.3333 50.9501 56.56C50.5301 62.84 46.4501 63.37 41.3701 63.64C41.1756 63.6488 40.99 63.7242 40.8444 63.8534C40.6988 63.9826 40.6019 64.1579 40.5701 64.35L39.9201 68.38C39.8679 68.6982 39.7035 68.9876 39.4562 69.1964C39.209 69.4052 38.8949 69.5199 38.5701 69.52ZM42.2201 60.41C44.9667 60.3033 46.2234 59.0833 45.9901 56.75C45.9714 56.5608 45.9138 56.3777 45.8208 56.2124C45.7278 56.0471 45.6016 55.9032 45.4501 55.79C44.8101 55.3033 43.9334 55.2567 42.8201 55.65C42.6678 55.7031 42.53 55.7903 42.4172 55.9048C42.3045 56.0193 42.2199 56.1579 42.1701 56.31C41.6767 57.7633 41.4567 58.9133 41.5101 59.76C41.5178 59.9387 41.5966 60.1071 41.7295 60.2288C41.8624 60.3504 42.0387 60.4155 42.2201 60.41Z" fill="#263B80"/>
<path d="M84.5399 69.54L82.2899 69.55C82.1639 69.5514 82.039 69.5254 81.924 69.4738C81.809 69.4222 81.7065 69.3462 81.6238 69.2511C81.541 69.156 81.48 69.044 81.4448 68.923C81.4096 68.8019 81.4011 68.6747 81.4199 68.55L83.9099 52.57C83.936 52.4018 84.0143 52.2467 84.1333 52.1277C84.2522 52.0088 84.4054 51.9324 84.5699 51.91C87.8199 51.49 94.4899 51.17 96.4199 53.91C96.7866 54.4233 96.9299 55.2933 96.8499 56.52C96.4599 62.8 92.3799 63.35 87.3099 63.65C87.1154 63.6588 86.9299 63.7342 86.7843 63.8634C86.6386 63.9926 86.5418 64.1679 86.5099 64.36L85.8799 68.39C85.8302 68.7084 85.6682 68.9987 85.4228 69.2093C85.1773 69.42 84.8645 69.5371 84.5399 69.54ZM87.6499 60.27C88.2299 60.7167 89.4533 60.3633 91.3199 59.21C91.4627 59.1224 91.5849 59.0047 91.6781 58.8649C91.7713 58.7251 91.8333 58.5665 91.8599 58.4C92.0399 57.3133 91.7666 56.4867 91.0399 55.92C90.3199 55.3533 89.4533 55.29 88.4399 55.73C88.2858 55.7967 88.148 55.8956 88.0358 56.0198C87.9237 56.1441 87.8398 56.2908 87.7899 56.45C87.1166 58.5433 87.0699 59.8167 87.6499 60.27Z" fill="#1399D5"/>
<path d="M114.31 69.67H112.39C112.235 69.6705 112.081 69.6373 111.94 69.5726C111.799 69.5079 111.674 69.4132 111.573 69.2953C111.472 69.1773 111.398 69.0388 111.356 68.8894C111.314 68.74 111.305 68.5832 111.33 68.43L113.85 52.82C113.89 52.57 114.018 52.3424 114.21 52.1776C114.402 52.0128 114.647 51.9215 114.9 51.92H116.83C116.985 51.9195 117.139 51.9527 117.28 52.0174C117.421 52.0821 117.546 52.1767 117.647 52.2947C117.748 52.4127 117.822 52.5512 117.864 52.7006C117.906 52.85 117.915 53.0068 117.89 53.16L115.37 68.77C115.329 69.0217 115.2 69.2506 115.006 69.4156C114.812 69.5806 114.565 69.6708 114.31 69.67Z" fill="#1399D5"/>
<path d="M23.9401 52.72C25.9301 56.37 24.9401 61.58 21.5601 63.97C19.8001 65.21 17.6201 65.37 14.9401 65.76C14.6068 65.8089 14.298 65.9624 14.0587 66.1981C13.8195 66.4338 13.6623 66.7393 13.6101 67.07L12.6901 72.77C12.6427 73.065 12.492 73.3336 12.2648 73.5278C12.0377 73.7219 11.7489 73.8291 11.4501 73.83H7.00012C6.83323 73.8298 6.66854 73.7919 6.5183 73.7193C6.36806 73.6466 6.23614 73.541 6.13235 73.4103C6.02856 73.2796 5.95558 73.1272 5.91884 72.9644C5.88209 72.8016 5.88253 72.6326 5.92012 72.47L6.63012 69.46C6.97012 67.06 6.89012 62.74 8.78012 61.05C12.8601 60.71 17.0801 61 20.2601 57.92C21.6401 56.59 22.2201 54.4 23.4601 52.69L23.9401 52.72Z" fill="#1399D5"/>
<path d="M65.1201 59.25L63.6801 68.34C63.6398 68.6045 63.5207 68.8504 63.3386 69.0451C63.1564 69.2397 62.9198 69.374 62.6601 69.43C61.8468 69.6167 60.7401 69.5433 59.3401 69.21C58.941 69.1153 58.5273 69.1119 58.1301 69.2C56.3568 69.5667 54.6801 69.6267 53.1001 69.38C52.7448 69.323 52.4121 69.1671 52.1401 68.93C50.1601 67.1767 49.6568 64.9667 50.6301 62.3C52.2701 57.86 55.4601 57.12 59.6701 57.94C60.8501 58.18 62.0234 58.0867 63.1901 57.66C63.4274 57.5732 63.6833 57.5499 63.9324 57.5925C64.1815 57.6351 64.4151 57.742 64.6102 57.9026C64.8052 58.0633 64.9548 58.2722 65.0443 58.5085C65.1337 58.7449 65.1599 59.0005 65.1201 59.25ZM59.6901 61.7755C59.4596 61.4857 59.1661 61.2505 58.8265 61.0835C58.4869 60.9165 58.1077 60.8208 57.7107 60.802C57.3137 60.7832 56.9066 60.8416 56.5126 60.9739C56.1186 61.1062 55.7455 61.3098 55.4146 61.573C55.0837 61.8362 54.8014 62.154 54.5839 62.5081C54.3663 62.8622 54.2178 63.2458 54.1468 63.6368C54.0759 64.0279 54.0838 64.4189 54.1701 64.7874C54.2565 65.1559 54.4196 65.4947 54.6501 65.7845C54.8806 66.0743 55.1741 66.3095 55.5137 66.4765C55.8533 66.6435 56.2325 66.7392 56.6295 66.758C57.0265 66.7768 57.4336 66.7184 57.8276 66.5861C58.2216 66.4538 58.5947 66.2502 58.9256 65.987C59.2565 65.7238 59.5388 65.406 59.7563 65.0519C59.9739 64.6978 60.1224 64.3143 60.1934 63.9232C60.2643 63.5321 60.2564 63.1412 60.1701 62.7727C60.0837 62.4042 59.9206 62.0653 59.6901 61.7755Z" fill="#263B80"/>
<path d="M73.12 63.93L76.78 58.65C77.0403 58.2759 77.3902 57.9735 77.7975 57.7708C78.2047 57.568 78.6562 57.4714 79.11 57.49L79.61 57.5C79.839 57.5189 80.059 57.5977 80.2479 57.7285C80.4368 57.8593 80.588 58.0375 80.6863 58.2452C80.7845 58.4529 80.8265 58.6828 80.8078 58.9118C80.7892 59.1408 80.7106 59.3609 80.58 59.55L71.39 72.79C71.1025 73.2006 70.7206 73.5359 70.2767 73.7674C69.8328 73.9989 69.34 74.1199 68.84 74.12H67.49C67.3275 74.1207 67.1683 74.0743 67.0317 73.9864C66.895 73.8985 66.7868 73.7729 66.7201 73.6247C66.6534 73.4765 66.6312 73.3122 66.656 73.1516C66.6808 72.991 66.7517 72.8411 66.86 72.72C67.98 71.4733 68.71 70.4766 69.05 69.73C70.12 67.43 67.69 61.63 66.62 59.8C66.5112 59.6151 66.4534 59.4047 66.4526 59.1902C66.4518 58.9756 66.508 58.7644 66.6155 58.5778C66.723 58.3912 66.878 58.2359 67.0649 58.1274C67.2518 58.0189 67.464 57.9612 67.68 57.96H69.06C69.554 57.9598 70.0353 58.1166 70.4343 58.4078C70.8333 58.699 71.1295 59.1095 71.28 59.58L72.66 63.87C72.676 63.9153 72.7043 63.9553 72.7416 63.9855C72.779 64.0158 72.824 64.0351 72.8716 64.0413C72.9193 64.0475 72.9677 64.0404 73.0116 64.0208C73.0554 64.0011 73.093 63.9697 73.12 63.93Z" fill="#263B80"/>
<path d="M110.92 59.23L109.44 68.4C109.398 68.6677 109.278 68.9161 109.094 69.1125C108.91 69.3089 108.671 69.444 108.41 69.5C107.59 69.6866 106.474 69.61 105.06 69.27C104.659 69.1713 104.242 69.1645 103.84 69.25C102.054 69.6166 100.364 69.6733 98.7702 69.42C98.411 69.3614 98.0748 69.2019 97.8002 68.96C95.8069 67.1866 95.3069 64.9566 96.3002 62.27C97.9602 57.79 101.18 57.06 105.43 57.9C106.617 58.14 107.8 58.0466 108.98 57.62C109.22 57.5327 109.478 57.5098 109.729 57.5533C109.981 57.5969 110.216 57.7055 110.412 57.8684C110.608 58.0312 110.759 58.2426 110.848 58.4815C110.937 58.7203 110.962 58.9784 110.92 59.23ZM105.526 61.8218C105.097 61.2252 104.406 60.8541 103.605 60.7901C102.804 60.7261 101.958 60.9744 101.254 61.4805C100.905 61.7311 100.602 62.0374 100.361 62.382C100.12 62.7265 99.946 63.1026 99.8495 63.4886C99.753 63.8747 99.7356 64.2633 99.7983 64.6321C99.8609 65.0009 100.002 65.3428 100.215 65.6382C100.643 66.2348 101.334 66.6059 102.135 66.6699C102.937 66.7339 103.782 66.4856 104.487 65.9795C104.835 65.7289 105.139 65.4226 105.38 65.078C105.621 64.7335 105.794 64.3574 105.891 63.9713C105.987 63.5852 106.005 63.1967 105.942 62.8279C105.88 62.4591 105.738 62.1172 105.526 61.8218Z" fill="#1399D5"/>
</svg>
