<svg width="59" height="59" viewBox="0 0 59 59" fill="none" xmlns="http://www.w3.org/2000/svg">
<g clip-path="url(#clip0_297_33)">
<path d="M11.5101 28.52L5.64014 23.08" stroke="#8BAF8D" stroke-width="2"/>
<path d="M11.5102 28.52L5.64015 23.08C4.18015 22.0267 2.49682 21.37 0.590155 21.11C0.513734 21.0966 0.444499 21.0566 0.394613 20.9972C0.344728 20.9377 0.317383 20.8626 0.317383 20.785C0.317383 20.7074 0.344728 20.6323 0.394613 20.5729C0.444499 20.5134 0.513734 20.4735 0.590155 20.46C3.04349 20.1467 5.62682 20.1267 8.34016 20.4C8.7915 20.444 9.2167 20.631 9.55328 20.9334C9.88987 21.2357 10.1201 21.6376 10.2102 22.08L11.5102 28.52Z" fill="#F3C95E"/>
<path d="M5.64014 23.08L11.5101 28.52L12.6001 31.75C12.6177 31.7982 12.6496 31.8399 12.6917 31.8694C12.7337 31.8989 12.7838 31.9147 12.8351 31.9147C12.8865 31.9147 12.9366 31.8989 12.9786 31.8694C13.0207 31.8399 13.0526 31.7982 13.0701 31.75L17.1701 20.46C17.1872 20.4073 17.2206 20.3613 17.2656 20.329C17.3106 20.2966 17.3647 20.2794 17.4201 20.28H21.8601C21.8906 20.281 21.9203 20.2894 21.9468 20.3043C21.9734 20.3193 21.9959 20.3404 22.0126 20.3659C22.0292 20.3914 22.0395 20.4205 22.0426 20.4508C22.0456 20.4811 22.0414 20.5117 22.0301 20.54L15.0101 38.07C14.9364 38.2507 14.8105 38.4053 14.6483 38.514C14.4862 38.6227 14.2953 38.6805 14.1001 38.68H10.3701C10.1832 38.6804 10.0016 38.6198 9.85337 38.5078C9.70513 38.3957 9.59856 38.2383 9.55014 38.06L5.64014 23.08Z" fill="#2394BC"/>
<path d="M24.4802 20.24H28.3502C28.4144 20.2392 28.478 20.2524 28.5365 20.2788C28.595 20.3051 28.6471 20.344 28.689 20.3926C28.7309 20.4412 28.7617 20.4983 28.7792 20.5601C28.7967 20.6218 28.8004 20.6867 28.7902 20.75L25.9802 38.36C25.9634 38.4642 25.9098 38.5589 25.829 38.6268C25.7482 38.6947 25.6457 38.7314 25.5402 38.73H21.6702C21.606 38.7308 21.5425 38.7176 21.4839 38.6913C21.4254 38.6649 21.3734 38.6261 21.3315 38.5775C21.2895 38.5289 21.2588 38.4717 21.2413 38.41C21.2238 38.3482 21.22 38.2834 21.2302 38.22L24.0402 20.61C24.057 20.5058 24.1107 20.4112 24.1914 20.3432C24.2722 20.2753 24.3747 20.2387 24.4802 20.24Z" fill="#2394BC"/>
<path d="M42.4402 20.87C42.5986 20.9204 42.7339 21.0256 42.8219 21.1667C42.9098 21.3078 42.9447 21.4755 42.9202 21.64L42.5102 24.17C42.4984 24.2499 42.4692 24.3262 42.4246 24.3936C42.3799 24.4611 42.3209 24.5182 42.2516 24.5609C42.1823 24.6037 42.1042 24.6311 42.0229 24.6413C41.9415 24.6515 41.8587 24.6442 41.7802 24.62C40.0535 24.08 38.4235 23.96 36.8902 24.26C36.6329 24.313 36.3975 24.4422 36.2145 24.6307C36.0316 24.8192 35.9095 25.0584 35.8643 25.3172C35.819 25.576 35.8525 25.8424 35.9606 26.0818C36.0687 26.3213 36.2462 26.5227 36.4702 26.66L40.7302 29.25C40.9272 29.3682 41.092 29.533 41.2102 29.73C42.9035 32.4966 42.5669 34.8566 40.2002 36.81C37.6402 38.9233 34.1235 39.3466 29.6502 38.08C29.4296 38.0169 29.2397 37.8753 29.1163 37.6819C28.9929 37.4885 28.9445 37.2566 28.9802 37.03L29.3502 34.69C29.3666 34.5814 29.4073 34.4779 29.4692 34.3873C29.5311 34.2966 29.6126 34.2211 29.7078 34.1663C29.8029 34.1115 29.9092 34.0789 30.0187 34.0709C30.1282 34.0629 30.2381 34.0796 30.3402 34.12C32.7202 35.04 34.7735 35.1733 36.5002 34.52C36.7378 34.4298 36.9453 34.2749 37.0994 34.0728C37.2534 33.8707 37.3478 33.6295 37.3717 33.3766C37.3956 33.1236 37.3482 32.869 37.2349 32.6416C37.1215 32.4142 36.9466 32.2231 36.7302 32.09L32.0202 29.17C31.8631 29.0719 31.735 28.93 31.6502 28.76C30.3302 26.06 30.6969 23.8933 32.7502 22.26C35.4035 20.1533 38.6335 19.69 42.4402 20.87Z" fill="#2394BC"/>
<path d="M59.0002 38.21C58.9936 38.3233 58.9936 38.44 59.0002 38.56C57.6869 38.8467 56.3202 38.8667 54.9002 38.62C54.7351 38.5917 54.5853 38.5059 54.4773 38.3778C54.3694 38.2497 54.3102 38.0875 54.3102 37.92V35.86C54.3102 35.6399 54.2228 35.4288 54.0671 35.2731C53.9115 35.1175 53.7004 35.03 53.4802 35.03H48.8802C48.7149 35.0306 48.5539 35.0806 48.4183 35.1734C48.2827 35.2662 48.1788 35.3975 48.1202 35.55L47.0402 38.24C46.9805 38.388 46.879 38.5146 46.749 38.6037C46.6189 38.6928 46.4661 38.7403 46.3102 38.74H42.7502C42.6836 38.7398 42.618 38.7233 42.5591 38.6919C42.5003 38.6606 42.45 38.6154 42.4125 38.5602C42.3751 38.5051 42.3517 38.4416 42.3443 38.3754C42.3369 38.3091 42.3458 38.2421 42.3702 38.18L49.1902 21.14C49.2845 20.9012 49.4484 20.6963 49.6606 20.5519C49.8728 20.4074 50.1235 20.3301 50.3802 20.33H54.5202C54.6883 20.3306 54.8511 20.3883 54.9819 20.4937C55.1128 20.5991 55.2039 20.746 55.2402 20.91L59.0002 38.21ZM51.4302 31.38C51.6902 31.3933 52.0902 31.3767 52.6302 31.33C52.6838 31.327 52.736 31.3123 52.7834 31.287C52.8307 31.2617 52.872 31.2265 52.9043 31.1837C52.9367 31.1409 52.9593 31.0915 52.9707 31.0391C52.9821 30.9867 52.9819 30.9324 52.9702 30.88L52.0302 26.8C52.0211 26.76 52.0015 26.7231 51.9734 26.6932C51.9453 26.6633 51.9096 26.6415 51.8702 26.63C51.7702 26.6033 51.6802 26.59 51.6002 26.59C51.5202 26.5834 51.4302 26.59 51.3302 26.61C51.2902 26.6191 51.2533 26.6387 51.2234 26.6668C51.1935 26.695 51.1717 26.7306 51.1602 26.77L49.9402 30.77C49.9237 30.8213 49.9185 30.8756 49.9251 30.9292C49.9317 30.9827 49.95 31.0341 49.9786 31.0798C50.0071 31.1255 50.0454 31.1645 50.0906 31.1939C50.1358 31.2233 50.1868 31.2424 50.2402 31.25C50.7802 31.33 51.1769 31.3733 51.4302 31.38Z" fill="#2394BC"/>
</g>
<defs>
<clipPath id="clip0_297_33">
<rect width="59" height="59" fill="white"/>
</clipPath>
</defs>
</svg>
